G04 #@! TF.GenerationSoftware,KiCad,Pcbnew,7.0.6*
G04 #@! TF.CreationDate,2023-08-07T22:51:51+02:00*
G04 #@! TF.ProjectId,Box,426f782e-6b69-4636-9164-5f7063625858,rev?*
G04 #@! TF.SameCoordinates,Original*
G04 #@! TF.FileFunction,Soldermask,Top*
G04 #@! TF.FilePolarity,Negative*
%FSLAX46Y46*%
G04 Gerber Fmt 4.6, Leading zero omitted, Abs format (unit mm)*
G04 Created by KiCad (PCBNEW 7.0.6) date 2023-08-07 22:51:51*
%MOMM*%
%LPD*%
G01*
G04 APERTURE LIST*
G04 Aperture macros list*
%AMRoundRect*
0 Rectangle with rounded corners*
0 $1 Rounding radius*
0 $2 $3 $4 $5 $6 $7 $8 $9 X,Y pos of 4 corners*
0 Add a 4 corners polygon primitive as box body*
4,1,4,$2,$3,$4,$5,$6,$7,$8,$9,$2,$3,0*
0 Add four circle primitives for the rounded corners*
1,1,$1+$1,$2,$3*
1,1,$1+$1,$4,$5*
1,1,$1+$1,$6,$7*
1,1,$1+$1,$8,$9*
0 Add four rect primitives between the rounded corners*
20,1,$1+$1,$2,$3,$4,$5,0*
20,1,$1+$1,$4,$5,$6,$7,0*
20,1,$1+$1,$6,$7,$8,$9,0*
20,1,$1+$1,$8,$9,$2,$3,0*%
G04 Aperture macros list end*
%ADD10C,4.000000*%
%ADD11C,3.200000*%
%ADD12R,2.600000X2.600000*%
%ADD13C,2.600000*%
%ADD14R,1.600000X1.600000*%
%ADD15C,1.600000*%
%ADD16RoundRect,0.250000X0.750000X-0.600000X0.750000X0.600000X-0.750000X0.600000X-0.750000X-0.600000X0*%
%ADD17O,2.000000X1.700000*%
G04 APERTURE END LIST*
D10*
X189484000Y-85090000D03*
X204984000Y-85090000D03*
D11*
X203835000Y-62230000D03*
X203835000Y-93980000D03*
X139065000Y-102235000D03*
X139065000Y-67310000D03*
D10*
X189484000Y-71120000D03*
X204984000Y-71120000D03*
D12*
X151130000Y-100965000D03*
D13*
X156210000Y-100965000D03*
D10*
X149200000Y-59540000D03*
X124200000Y-59540000D03*
D14*
X142240000Y-60960000D03*
D15*
X139470000Y-60960000D03*
X136700000Y-60960000D03*
X133930000Y-60960000D03*
X131160000Y-60960000D03*
X140855000Y-58120000D03*
X138085000Y-58120000D03*
X135315000Y-58120000D03*
X132545000Y-58120000D03*
D12*
X173990000Y-100965000D03*
D13*
X179070000Y-100965000D03*
D12*
X185420000Y-100965000D03*
D13*
X190500000Y-100965000D03*
X195580000Y-100965000D03*
D10*
X189205000Y-59540000D03*
X164205000Y-59540000D03*
D14*
X182245000Y-60960000D03*
D15*
X179475000Y-60960000D03*
X176705000Y-60960000D03*
X173935000Y-60960000D03*
X171165000Y-60960000D03*
X180860000Y-58120000D03*
X178090000Y-58120000D03*
X175320000Y-58120000D03*
X172550000Y-58120000D03*
D16*
X144780000Y-101560000D03*
D17*
X144780000Y-99060000D03*
D12*
X162560000Y-100965000D03*
D13*
X167640000Y-100965000D03*
M02*
