G04 #@! TF.GenerationSoftware,KiCad,Pcbnew,7.0.6*
G04 #@! TF.CreationDate,2023-08-07T22:51:51+02:00*
G04 #@! TF.ProjectId,Box,426f782e-6b69-4636-9164-5f7063625858,rev?*
G04 #@! TF.SameCoordinates,Original*
G04 #@! TF.FileFunction,Copper,L2,Bot*
G04 #@! TF.FilePolarity,Positive*
%FSLAX46Y46*%
G04 Gerber Fmt 4.6, Leading zero omitted, Abs format (unit mm)*
G04 Created by KiCad (PCBNEW 7.0.6) date 2023-08-07 22:51:51*
%MOMM*%
%LPD*%
G01*
G04 APERTURE LIST*
G04 Aperture macros list*
%AMRoundRect*
0 Rectangle with rounded corners*
0 $1 Rounding radius*
0 $2 $3 $4 $5 $6 $7 $8 $9 X,Y pos of 4 corners*
0 Add a 4 corners polygon primitive as box body*
4,1,4,$2,$3,$4,$5,$6,$7,$8,$9,$2,$3,0*
0 Add four circle primitives for the rounded corners*
1,1,$1+$1,$2,$3*
1,1,$1+$1,$4,$5*
1,1,$1+$1,$6,$7*
1,1,$1+$1,$8,$9*
0 Add four rect primitives between the rounded corners*
20,1,$1+$1,$2,$3,$4,$5,0*
20,1,$1+$1,$4,$5,$6,$7,0*
20,1,$1+$1,$6,$7,$8,$9,0*
20,1,$1+$1,$8,$9,$2,$3,0*%
G04 Aperture macros list end*
G04 #@! TA.AperFunction,ComponentPad*
%ADD10C,4.000000*%
G04 #@! TD*
G04 #@! TA.AperFunction,ComponentPad*
%ADD11R,2.600000X2.600000*%
G04 #@! TD*
G04 #@! TA.AperFunction,ComponentPad*
%ADD12C,2.600000*%
G04 #@! TD*
G04 #@! TA.AperFunction,ComponentPad*
%ADD13R,1.600000X1.600000*%
G04 #@! TD*
G04 #@! TA.AperFunction,ComponentPad*
%ADD14C,1.600000*%
G04 #@! TD*
G04 #@! TA.AperFunction,ComponentPad*
%ADD15RoundRect,0.250000X0.750000X-0.600000X0.750000X0.600000X-0.750000X0.600000X-0.750000X-0.600000X0*%
G04 #@! TD*
G04 #@! TA.AperFunction,ComponentPad*
%ADD16O,2.000000X1.700000*%
G04 #@! TD*
G04 APERTURE END LIST*
D10*
X189484000Y-85090000D03*
X204984000Y-85090000D03*
X189484000Y-71120000D03*
X204984000Y-71120000D03*
D11*
X151130000Y-100965000D03*
D12*
X156210000Y-100965000D03*
D10*
X149200000Y-59540000D03*
X124200000Y-59540000D03*
D13*
X142240000Y-60960000D03*
D14*
X139470000Y-60960000D03*
X136700000Y-60960000D03*
X133930000Y-60960000D03*
X131160000Y-60960000D03*
X140855000Y-58120000D03*
X138085000Y-58120000D03*
X135315000Y-58120000D03*
X132545000Y-58120000D03*
D11*
X173990000Y-100965000D03*
D12*
X179070000Y-100965000D03*
D11*
X185420000Y-100965000D03*
D12*
X190500000Y-100965000D03*
X195580000Y-100965000D03*
D10*
X189205000Y-59540000D03*
X164205000Y-59540000D03*
D13*
X182245000Y-60960000D03*
D14*
X179475000Y-60960000D03*
X176705000Y-60960000D03*
X173935000Y-60960000D03*
X171165000Y-60960000D03*
X180860000Y-58120000D03*
X178090000Y-58120000D03*
X175320000Y-58120000D03*
X172550000Y-58120000D03*
D15*
X144780000Y-101560000D03*
D16*
X144780000Y-99060000D03*
D11*
X162560000Y-100965000D03*
D12*
X167640000Y-100965000D03*
G04 #@! TA.AperFunction,Conductor*
G36*
X198603939Y-50685185D02*
G01*
X198649694Y-50737989D01*
X198660900Y-50789500D01*
X198660899Y-53070169D01*
X198660900Y-53070174D01*
X198660900Y-53339642D01*
X198696714Y-53794706D01*
X198696714Y-53794707D01*
X198696715Y-53794713D01*
X198768124Y-54245574D01*
X198874688Y-54689441D01*
X198942579Y-54898390D01*
X199015746Y-55123576D01*
X199015746Y-55123575D01*
X199190435Y-55545313D01*
X199397676Y-55952046D01*
X199615573Y-56307622D01*
X199636183Y-56341253D01*
X199759686Y-56511240D01*
X199904498Y-56710556D01*
X199976294Y-56794618D01*
X200200956Y-57057664D01*
X200523736Y-57380444D01*
X200627443Y-57469018D01*
X200870844Y-57676902D01*
X200870847Y-57676904D01*
X201240147Y-57945217D01*
X201264347Y-57960047D01*
X201629354Y-58183724D01*
X202036087Y-58390965D01*
X202457825Y-58565654D01*
X202457824Y-58565654D01*
X202683009Y-58638820D01*
X202891959Y-58706712D01*
X203335826Y-58813276D01*
X203747692Y-58878508D01*
X203786693Y-58884686D01*
X203786694Y-58884686D01*
X204241758Y-58920500D01*
X204241760Y-58920500D01*
X204434201Y-58920500D01*
X207020500Y-58920500D01*
X207087539Y-58940185D01*
X207133294Y-58992989D01*
X207144500Y-59044500D01*
X207144500Y-69451801D01*
X207124815Y-69518840D01*
X207072011Y-69564595D01*
X207002853Y-69574539D01*
X206939297Y-69545514D01*
X206924960Y-69530847D01*
X206816233Y-69399418D01*
X206816232Y-69399417D01*
X206816227Y-69399411D01*
X206586141Y-69183347D01*
X206586131Y-69183339D01*
X206330790Y-68997823D01*
X206330783Y-68997818D01*
X206330779Y-68997816D01*
X206054179Y-68845753D01*
X206054176Y-68845751D01*
X206054171Y-68845749D01*
X206054170Y-68845748D01*
X205760705Y-68729557D01*
X205760702Y-68729556D01*
X205454978Y-68651060D01*
X205454965Y-68651058D01*
X205141832Y-68611500D01*
X205141821Y-68611500D01*
X204826179Y-68611500D01*
X204826167Y-68611500D01*
X204513034Y-68651058D01*
X204513021Y-68651060D01*
X204207297Y-68729556D01*
X204207294Y-68729557D01*
X203913829Y-68845748D01*
X203913828Y-68845749D01*
X203637221Y-68997816D01*
X203637209Y-68997823D01*
X203381868Y-69183339D01*
X203381858Y-69183347D01*
X203151772Y-69399411D01*
X202950561Y-69642634D01*
X202781442Y-69909123D01*
X202781436Y-69909134D01*
X202647046Y-70194727D01*
X202647044Y-70194732D01*
X202556537Y-70473283D01*
X202549505Y-70494928D01*
X202516220Y-70669409D01*
X202490357Y-70804987D01*
X202470540Y-71119994D01*
X202470540Y-71120005D01*
X202490357Y-71435012D01*
X202490359Y-71435020D01*
X202549505Y-71745072D01*
X202549507Y-71745077D01*
X202647044Y-72045267D01*
X202647046Y-72045272D01*
X202781436Y-72330865D01*
X202781442Y-72330876D01*
X202950561Y-72597365D01*
X202950563Y-72597368D01*
X202950568Y-72597375D01*
X203091516Y-72767751D01*
X203151772Y-72840588D01*
X203381858Y-73056652D01*
X203381868Y-73056660D01*
X203637209Y-73242176D01*
X203637214Y-73242178D01*
X203637221Y-73242184D01*
X203913821Y-73394247D01*
X203913826Y-73394249D01*
X203913828Y-73394250D01*
X203913829Y-73394251D01*
X204207294Y-73510442D01*
X204207297Y-73510443D01*
X204513021Y-73588939D01*
X204513025Y-73588940D01*
X204578717Y-73597238D01*
X204826167Y-73628499D01*
X204826176Y-73628499D01*
X204826179Y-73628500D01*
X204826181Y-73628500D01*
X205141819Y-73628500D01*
X205141821Y-73628500D01*
X205141824Y-73628499D01*
X205141832Y-73628499D01*
X205328692Y-73604892D01*
X205454975Y-73588940D01*
X205760702Y-73510443D01*
X205760705Y-73510442D01*
X206054170Y-73394251D01*
X206054171Y-73394250D01*
X206054169Y-73394250D01*
X206054179Y-73394247D01*
X206330779Y-73242184D01*
X206586140Y-73056654D01*
X206816233Y-72840582D01*
X206924957Y-72709156D01*
X206982856Y-72670050D01*
X207052707Y-72668454D01*
X207112333Y-72704875D01*
X207142803Y-72767751D01*
X207144500Y-72788198D01*
X207144500Y-83421801D01*
X207124815Y-83488840D01*
X207072011Y-83534595D01*
X207002853Y-83544539D01*
X206939297Y-83515514D01*
X206924960Y-83500847D01*
X206816233Y-83369418D01*
X206816232Y-83369417D01*
X206816227Y-83369411D01*
X206586141Y-83153347D01*
X206586131Y-83153339D01*
X206330790Y-82967823D01*
X206330783Y-82967818D01*
X206330779Y-82967816D01*
X206054179Y-82815753D01*
X206054176Y-82815751D01*
X206054171Y-82815749D01*
X206054170Y-82815748D01*
X205760705Y-82699557D01*
X205760702Y-82699556D01*
X205454978Y-82621060D01*
X205454965Y-82621058D01*
X205141832Y-82581500D01*
X205141821Y-82581500D01*
X204826179Y-82581500D01*
X204826167Y-82581500D01*
X204513034Y-82621058D01*
X204513021Y-82621060D01*
X204207297Y-82699556D01*
X204207294Y-82699557D01*
X203913829Y-82815748D01*
X203913828Y-82815749D01*
X203637221Y-82967816D01*
X203637209Y-82967823D01*
X203381868Y-83153339D01*
X203381858Y-83153347D01*
X203151772Y-83369411D01*
X202950561Y-83612634D01*
X202781442Y-83879123D01*
X202781436Y-83879134D01*
X202647046Y-84164727D01*
X202647044Y-84164732D01*
X202556537Y-84443283D01*
X202549505Y-84464928D01*
X202516220Y-84639409D01*
X202490357Y-84774987D01*
X202470540Y-85089994D01*
X202470540Y-85090005D01*
X202490357Y-85405012D01*
X202490359Y-85405020D01*
X202549505Y-85715072D01*
X202549507Y-85715077D01*
X202647044Y-86015267D01*
X202647046Y-86015272D01*
X202781436Y-86300865D01*
X202781442Y-86300876D01*
X202950561Y-86567365D01*
X202950563Y-86567368D01*
X202950568Y-86567375D01*
X203091516Y-86737751D01*
X203151772Y-86810588D01*
X203381858Y-87026652D01*
X203381868Y-87026660D01*
X203637209Y-87212176D01*
X203637214Y-87212178D01*
X203637221Y-87212184D01*
X203913821Y-87364247D01*
X203913826Y-87364249D01*
X203913828Y-87364250D01*
X203913829Y-87364251D01*
X204207294Y-87480442D01*
X204207297Y-87480443D01*
X204513021Y-87558939D01*
X204513025Y-87558940D01*
X204578717Y-87567238D01*
X204826167Y-87598499D01*
X204826176Y-87598499D01*
X204826179Y-87598500D01*
X204826181Y-87598500D01*
X205141819Y-87598500D01*
X205141821Y-87598500D01*
X205141824Y-87598499D01*
X205141832Y-87598499D01*
X205328692Y-87574892D01*
X205454975Y-87558940D01*
X205760702Y-87480443D01*
X205760705Y-87480442D01*
X206054170Y-87364251D01*
X206054171Y-87364250D01*
X206054169Y-87364250D01*
X206054179Y-87364247D01*
X206330779Y-87212184D01*
X206586140Y-87026654D01*
X206816233Y-86810582D01*
X206924957Y-86679156D01*
X206982856Y-86640050D01*
X207052707Y-86638454D01*
X207112333Y-86674875D01*
X207142803Y-86737751D01*
X207144500Y-86758198D01*
X207144500Y-97165500D01*
X207124815Y-97232539D01*
X207072011Y-97278294D01*
X207020500Y-97289500D01*
X204241758Y-97289500D01*
X203786694Y-97325314D01*
X203786693Y-97325314D01*
X203786686Y-97325315D01*
X203786687Y-97325315D01*
X203335826Y-97396724D01*
X202891959Y-97503288D01*
X202683009Y-97571179D01*
X202457824Y-97644346D01*
X202457825Y-97644346D01*
X202036087Y-97819035D01*
X201629354Y-98026276D01*
X201363949Y-98188917D01*
X201240147Y-98264783D01*
X200979256Y-98454332D01*
X200870844Y-98533098D01*
X200815386Y-98580464D01*
X200523736Y-98829556D01*
X200200956Y-99152336D01*
X200100595Y-99269844D01*
X199904498Y-99499444D01*
X199845165Y-99581107D01*
X199636183Y-99868747D01*
X199615573Y-99902377D01*
X199397676Y-100257954D01*
X199190435Y-100664687D01*
X199015747Y-101086424D01*
X199015746Y-101086425D01*
X199015746Y-101086424D01*
X198956613Y-101268419D01*
X198874688Y-101520559D01*
X198768124Y-101964426D01*
X198731044Y-102198541D01*
X198696714Y-102415293D01*
X198696714Y-102415294D01*
X198660900Y-102870358D01*
X198660900Y-105420500D01*
X198641215Y-105487539D01*
X198588411Y-105533294D01*
X198536900Y-105544500D01*
X135879500Y-105544500D01*
X135812461Y-105524815D01*
X135766706Y-105472011D01*
X135755500Y-105420500D01*
X135755500Y-102302763D01*
X137210787Y-102302763D01*
X137240413Y-102572013D01*
X137240415Y-102572024D01*
X137291386Y-102766989D01*
X137308928Y-102834088D01*
X137414870Y-103083390D01*
X137486998Y-103201575D01*
X137555979Y-103314605D01*
X137555986Y-103314615D01*
X137729253Y-103522819D01*
X137729259Y-103522824D01*
X137930998Y-103703582D01*
X138156910Y-103853044D01*
X138402176Y-103968020D01*
X138402183Y-103968022D01*
X138402185Y-103968023D01*
X138661557Y-104046057D01*
X138661564Y-104046058D01*
X138661569Y-104046060D01*
X138929561Y-104085500D01*
X138929566Y-104085500D01*
X139132636Y-104085500D01*
X139184133Y-104081730D01*
X139335156Y-104070677D01*
X139447758Y-104045593D01*
X139599546Y-104011782D01*
X139599548Y-104011781D01*
X139599553Y-104011780D01*
X139852558Y-103915014D01*
X140088777Y-103782441D01*
X140303177Y-103616888D01*
X140491186Y-103421881D01*
X140648799Y-103201579D01*
X140722787Y-103057669D01*
X140772649Y-102960690D01*
X140772651Y-102960684D01*
X140772656Y-102960675D01*
X140860118Y-102704305D01*
X140909319Y-102437933D01*
X140917629Y-102210537D01*
X143271500Y-102210537D01*
X143271501Y-102210553D01*
X143282113Y-102314427D01*
X143315534Y-102415287D01*
X143337885Y-102482738D01*
X143430970Y-102633652D01*
X143556348Y-102759030D01*
X143707262Y-102852115D01*
X143875574Y-102907887D01*
X143979455Y-102918500D01*
X145580544Y-102918499D01*
X145684426Y-102907887D01*
X145852738Y-102852115D01*
X146003652Y-102759030D01*
X146129030Y-102633652D01*
X146222115Y-102482738D01*
X146277887Y-102314426D01*
X146277966Y-102313654D01*
X149321500Y-102313654D01*
X149328011Y-102374202D01*
X149328011Y-102374204D01*
X149368494Y-102482740D01*
X149379111Y-102511204D01*
X149466739Y-102628261D01*
X149583796Y-102715889D01*
X149698949Y-102758839D01*
X149715463Y-102764999D01*
X149720799Y-102766989D01*
X149748050Y-102769918D01*
X149781345Y-102773499D01*
X149781362Y-102773500D01*
X152478638Y-102773500D01*
X152478654Y-102773499D01*
X152505692Y-102770591D01*
X152539201Y-102766989D01*
X152544537Y-102764999D01*
X152560545Y-102759028D01*
X152676204Y-102715889D01*
X152793261Y-102628261D01*
X152880889Y-102511204D01*
X152931989Y-102374201D01*
X152935591Y-102340692D01*
X152938499Y-102313654D01*
X152938500Y-102313637D01*
X152938500Y-100965004D01*
X154404953Y-100965004D01*
X154425113Y-101234026D01*
X154425113Y-101234028D01*
X154485142Y-101497033D01*
X154485148Y-101497052D01*
X154583709Y-101748181D01*
X154583708Y-101748181D01*
X154718602Y-101981822D01*
X154772294Y-102049151D01*
X154772295Y-102049151D01*
X155607452Y-101213993D01*
X155617188Y-101243956D01*
X155705186Y-101382619D01*
X155824903Y-101495040D01*
X155959510Y-101569041D01*
X155124848Y-102403702D01*
X155307483Y-102528220D01*
X155307485Y-102528221D01*
X155550539Y-102645269D01*
X155550537Y-102645269D01*
X155808337Y-102724790D01*
X155808343Y-102724792D01*
X156075101Y-102764999D01*
X156075110Y-102765000D01*
X156344890Y-102765000D01*
X156344898Y-102764999D01*
X156611656Y-102724792D01*
X156611662Y-102724790D01*
X156869461Y-102645269D01*
X157112521Y-102528218D01*
X157295150Y-102403702D01*
X157205102Y-102313654D01*
X160751500Y-102313654D01*
X160758011Y-102374202D01*
X160758011Y-102374204D01*
X160798494Y-102482740D01*
X160809111Y-102511204D01*
X160896739Y-102628261D01*
X161013796Y-102715889D01*
X161128949Y-102758839D01*
X161145463Y-102764999D01*
X161150799Y-102766989D01*
X161178050Y-102769918D01*
X161211345Y-102773499D01*
X161211362Y-102773500D01*
X163908638Y-102773500D01*
X163908654Y-102773499D01*
X163935692Y-102770591D01*
X163969201Y-102766989D01*
X163974537Y-102764999D01*
X163990545Y-102759028D01*
X164106204Y-102715889D01*
X164223261Y-102628261D01*
X164310889Y-102511204D01*
X164361989Y-102374201D01*
X164365591Y-102340692D01*
X164368499Y-102313654D01*
X164368500Y-102313637D01*
X164368500Y-100965004D01*
X165826429Y-100965004D01*
X165846683Y-101235289D01*
X165846684Y-101235294D01*
X165906997Y-101499545D01*
X165906999Y-101499554D01*
X165907001Y-101499559D01*
X166006029Y-101751879D01*
X166141557Y-101986621D01*
X166310558Y-102198542D01*
X166509257Y-102382907D01*
X166733215Y-102535599D01*
X166977428Y-102653206D01*
X167236442Y-102733101D01*
X167236443Y-102733101D01*
X167236446Y-102733102D01*
X167504464Y-102773499D01*
X167504469Y-102773499D01*
X167504472Y-102773500D01*
X167504473Y-102773500D01*
X167775527Y-102773500D01*
X167775528Y-102773500D01*
X167818726Y-102766989D01*
X168043553Y-102733102D01*
X168043554Y-102733101D01*
X168043558Y-102733101D01*
X168302572Y-102653206D01*
X168546786Y-102535599D01*
X168770743Y-102382907D01*
X168845380Y-102313654D01*
X172181500Y-102313654D01*
X172188011Y-102374202D01*
X172188011Y-102374204D01*
X172228494Y-102482740D01*
X172239111Y-102511204D01*
X172326739Y-102628261D01*
X172443796Y-102715889D01*
X172558949Y-102758839D01*
X172575463Y-102764999D01*
X172580799Y-102766989D01*
X172608050Y-102769918D01*
X172641345Y-102773499D01*
X172641362Y-102773500D01*
X175338638Y-102773500D01*
X175338654Y-102773499D01*
X175365692Y-102770591D01*
X175399201Y-102766989D01*
X175404537Y-102764999D01*
X175420545Y-102759028D01*
X175536204Y-102715889D01*
X175653261Y-102628261D01*
X175740889Y-102511204D01*
X175791989Y-102374201D01*
X175795591Y-102340692D01*
X175798499Y-102313654D01*
X175798500Y-102313637D01*
X175798500Y-100965004D01*
X177256429Y-100965004D01*
X177276683Y-101235289D01*
X177276684Y-101235294D01*
X177336997Y-101499545D01*
X177336999Y-101499554D01*
X177337001Y-101499559D01*
X177436029Y-101751879D01*
X177571557Y-101986621D01*
X177740558Y-102198542D01*
X177939257Y-102382907D01*
X178163215Y-102535599D01*
X178407428Y-102653206D01*
X178666442Y-102733101D01*
X178666443Y-102733101D01*
X178666446Y-102733102D01*
X178934464Y-102773499D01*
X178934469Y-102773499D01*
X178934472Y-102773500D01*
X178934473Y-102773500D01*
X179205527Y-102773500D01*
X179205528Y-102773500D01*
X179248726Y-102766989D01*
X179473553Y-102733102D01*
X179473554Y-102733101D01*
X179473558Y-102733101D01*
X179732572Y-102653206D01*
X179976786Y-102535599D01*
X180200743Y-102382907D01*
X180275380Y-102313654D01*
X183611500Y-102313654D01*
X183618011Y-102374202D01*
X183618011Y-102374204D01*
X183658494Y-102482740D01*
X183669111Y-102511204D01*
X183756739Y-102628261D01*
X183873796Y-102715889D01*
X183988949Y-102758839D01*
X184005463Y-102764999D01*
X184010799Y-102766989D01*
X184038050Y-102769918D01*
X184071345Y-102773499D01*
X184071362Y-102773500D01*
X186768638Y-102773500D01*
X186768654Y-102773499D01*
X186795692Y-102770591D01*
X186829201Y-102766989D01*
X186834537Y-102764999D01*
X186850545Y-102759028D01*
X186966204Y-102715889D01*
X187083261Y-102628261D01*
X187170889Y-102511204D01*
X187221989Y-102374201D01*
X187225591Y-102340692D01*
X187228499Y-102313654D01*
X187228500Y-102313637D01*
X187228500Y-100965004D01*
X188694953Y-100965004D01*
X188715113Y-101234026D01*
X188715113Y-101234028D01*
X188775142Y-101497033D01*
X188775148Y-101497052D01*
X188873709Y-101748181D01*
X188873708Y-101748181D01*
X189008602Y-101981822D01*
X189062294Y-102049151D01*
X189062295Y-102049151D01*
X189897452Y-101213993D01*
X189907188Y-101243956D01*
X189995186Y-101382619D01*
X190114903Y-101495040D01*
X190249510Y-101569041D01*
X189414848Y-102403702D01*
X189597483Y-102528220D01*
X189597485Y-102528221D01*
X189840539Y-102645269D01*
X189840537Y-102645269D01*
X190098337Y-102724790D01*
X190098343Y-102724792D01*
X190365101Y-102764999D01*
X190365110Y-102765000D01*
X190634890Y-102765000D01*
X190634898Y-102764999D01*
X190901656Y-102724792D01*
X190901662Y-102724790D01*
X191159461Y-102645269D01*
X191402521Y-102528218D01*
X191585150Y-102403702D01*
X190747534Y-101566086D01*
X190815629Y-101539126D01*
X190948492Y-101442595D01*
X191053175Y-101316055D01*
X191101631Y-101213080D01*
X191937703Y-102049151D01*
X191937704Y-102049151D01*
X191991393Y-101981828D01*
X191991400Y-101981817D01*
X192126290Y-101748181D01*
X192224851Y-101497052D01*
X192224857Y-101497033D01*
X192284886Y-101234028D01*
X192284886Y-101234026D01*
X192305047Y-100965004D01*
X193766429Y-100965004D01*
X193786683Y-101235289D01*
X193786684Y-101235294D01*
X193846997Y-101499545D01*
X193846999Y-101499554D01*
X193847001Y-101499559D01*
X193946029Y-101751879D01*
X194081557Y-101986621D01*
X194250558Y-102198542D01*
X194449257Y-102382907D01*
X194673215Y-102535599D01*
X194917428Y-102653206D01*
X195176442Y-102733101D01*
X195176443Y-102733101D01*
X195176446Y-102733102D01*
X195444464Y-102773499D01*
X195444469Y-102773499D01*
X195444472Y-102773500D01*
X195444473Y-102773500D01*
X195715527Y-102773500D01*
X195715528Y-102773500D01*
X195758726Y-102766989D01*
X195983553Y-102733102D01*
X195983554Y-102733101D01*
X195983558Y-102733101D01*
X196242572Y-102653206D01*
X196486786Y-102535599D01*
X196710743Y-102382907D01*
X196909442Y-102198542D01*
X197078443Y-101986621D01*
X197213971Y-101751879D01*
X197312999Y-101499559D01*
X197373315Y-101235299D01*
X197373410Y-101234028D01*
X197393571Y-100965004D01*
X197393571Y-100964995D01*
X197373316Y-100694710D01*
X197373315Y-100694705D01*
X197373315Y-100694701D01*
X197312999Y-100430441D01*
X197213971Y-100178121D01*
X197078443Y-99943379D01*
X196909442Y-99731458D01*
X196710743Y-99547093D01*
X196486786Y-99394401D01*
X196486780Y-99394398D01*
X196486779Y-99394397D01*
X196486778Y-99394396D01*
X196242574Y-99276795D01*
X196242576Y-99276795D01*
X195983559Y-99196899D01*
X195983553Y-99196897D01*
X195715535Y-99156500D01*
X195715528Y-99156500D01*
X195444472Y-99156500D01*
X195444464Y-99156500D01*
X195176446Y-99196897D01*
X195176440Y-99196899D01*
X194917427Y-99276794D01*
X194673219Y-99394398D01*
X194449256Y-99547093D01*
X194250560Y-99731456D01*
X194250558Y-99731458D01*
X194081557Y-99943379D01*
X193946029Y-100178120D01*
X193847003Y-100430435D01*
X193846997Y-100430454D01*
X193786684Y-100694705D01*
X193786683Y-100694710D01*
X193766429Y-100964995D01*
X193766429Y-100965004D01*
X192305047Y-100965004D01*
X192305047Y-100964995D01*
X192284886Y-100695973D01*
X192284886Y-100695971D01*
X192224857Y-100432966D01*
X192224851Y-100432947D01*
X192126290Y-100181818D01*
X192126291Y-100181818D01*
X191991397Y-99948177D01*
X191937704Y-99880847D01*
X191102546Y-100716004D01*
X191092812Y-100686044D01*
X191004814Y-100547381D01*
X190885097Y-100434960D01*
X190750489Y-100360958D01*
X191585150Y-99526296D01*
X191402517Y-99401779D01*
X191402516Y-99401778D01*
X191159460Y-99284730D01*
X191159462Y-99284730D01*
X190901662Y-99205209D01*
X190901656Y-99205207D01*
X190634898Y-99165000D01*
X190365101Y-99165000D01*
X190098343Y-99205207D01*
X190098337Y-99205209D01*
X189840538Y-99284730D01*
X189597485Y-99401778D01*
X189597476Y-99401783D01*
X189414848Y-99526296D01*
X190252465Y-100363913D01*
X190184371Y-100390874D01*
X190051508Y-100487405D01*
X189946825Y-100613945D01*
X189898368Y-100716920D01*
X189062295Y-99880848D01*
X189008600Y-99948180D01*
X188873709Y-100181818D01*
X188775148Y-100432947D01*
X188775142Y-100432966D01*
X188715113Y-100695971D01*
X188715113Y-100695973D01*
X188694953Y-100964995D01*
X188694953Y-100965004D01*
X187228500Y-100965004D01*
X187228500Y-99616362D01*
X187228499Y-99616345D01*
X187225157Y-99585270D01*
X187221989Y-99555799D01*
X187170889Y-99418796D01*
X187083261Y-99301739D01*
X186966204Y-99214111D01*
X186942332Y-99205207D01*
X186829203Y-99163011D01*
X186768654Y-99156500D01*
X186768638Y-99156500D01*
X184071362Y-99156500D01*
X184071345Y-99156500D01*
X184010797Y-99163011D01*
X184010795Y-99163011D01*
X183873795Y-99214111D01*
X183756739Y-99301739D01*
X183669111Y-99418795D01*
X183618011Y-99555795D01*
X183618011Y-99555797D01*
X183611500Y-99616345D01*
X183611500Y-102313654D01*
X180275380Y-102313654D01*
X180399442Y-102198542D01*
X180568443Y-101986621D01*
X180703971Y-101751879D01*
X180802999Y-101499559D01*
X180863315Y-101235299D01*
X180863410Y-101234028D01*
X180883571Y-100965004D01*
X180883571Y-100964995D01*
X180863316Y-100694710D01*
X180863315Y-100694705D01*
X180863315Y-100694701D01*
X180802999Y-100430441D01*
X180703971Y-100178121D01*
X180568443Y-99943379D01*
X180399442Y-99731458D01*
X180200743Y-99547093D01*
X179976786Y-99394401D01*
X179976780Y-99394398D01*
X179976779Y-99394397D01*
X179976778Y-99394396D01*
X179732574Y-99276795D01*
X179732576Y-99276795D01*
X179473559Y-99196899D01*
X179473553Y-99196897D01*
X179205535Y-99156500D01*
X179205528Y-99156500D01*
X178934472Y-99156500D01*
X178934464Y-99156500D01*
X178666446Y-99196897D01*
X178666440Y-99196899D01*
X178407427Y-99276794D01*
X178163219Y-99394398D01*
X177939256Y-99547093D01*
X177740560Y-99731456D01*
X177740558Y-99731458D01*
X177571557Y-99943379D01*
X177436029Y-100178120D01*
X177337003Y-100430435D01*
X177336997Y-100430454D01*
X177276684Y-100694705D01*
X177276683Y-100694710D01*
X177256429Y-100964995D01*
X177256429Y-100965004D01*
X175798500Y-100965004D01*
X175798500Y-99616362D01*
X175798499Y-99616345D01*
X175795157Y-99585270D01*
X175791989Y-99555799D01*
X175740889Y-99418796D01*
X175653261Y-99301739D01*
X175536204Y-99214111D01*
X175512332Y-99205207D01*
X175399203Y-99163011D01*
X175338654Y-99156500D01*
X175338638Y-99156500D01*
X172641362Y-99156500D01*
X172641345Y-99156500D01*
X172580797Y-99163011D01*
X172580795Y-99163011D01*
X172443795Y-99214111D01*
X172326739Y-99301739D01*
X172239111Y-99418795D01*
X172188011Y-99555795D01*
X172188011Y-99555797D01*
X172181500Y-99616345D01*
X172181500Y-102313654D01*
X168845380Y-102313654D01*
X168969442Y-102198542D01*
X169138443Y-101986621D01*
X169273971Y-101751879D01*
X169372999Y-101499559D01*
X169433315Y-101235299D01*
X169433410Y-101234028D01*
X169453571Y-100965004D01*
X169453571Y-100964995D01*
X169433316Y-100694710D01*
X169433315Y-100694705D01*
X169433315Y-100694701D01*
X169372999Y-100430441D01*
X169273971Y-100178121D01*
X169138443Y-99943379D01*
X168969442Y-99731458D01*
X168770743Y-99547093D01*
X168546786Y-99394401D01*
X168546780Y-99394398D01*
X168546779Y-99394397D01*
X168546778Y-99394396D01*
X168302574Y-99276795D01*
X168302576Y-99276795D01*
X168043559Y-99196899D01*
X168043553Y-99196897D01*
X167775535Y-99156500D01*
X167775528Y-99156500D01*
X167504472Y-99156500D01*
X167504464Y-99156500D01*
X167236446Y-99196897D01*
X167236440Y-99196899D01*
X166977427Y-99276794D01*
X166733219Y-99394398D01*
X166509256Y-99547093D01*
X166310560Y-99731456D01*
X166310558Y-99731458D01*
X166141557Y-99943379D01*
X166006029Y-100178120D01*
X165907003Y-100430435D01*
X165906997Y-100430454D01*
X165846684Y-100694705D01*
X165846683Y-100694710D01*
X165826429Y-100964995D01*
X165826429Y-100965004D01*
X164368500Y-100965004D01*
X164368500Y-99616362D01*
X164368499Y-99616345D01*
X164365157Y-99585270D01*
X164361989Y-99555799D01*
X164310889Y-99418796D01*
X164223261Y-99301739D01*
X164106204Y-99214111D01*
X164082332Y-99205207D01*
X163969203Y-99163011D01*
X163908654Y-99156500D01*
X163908638Y-99156500D01*
X161211362Y-99156500D01*
X161211345Y-99156500D01*
X161150797Y-99163011D01*
X161150795Y-99163011D01*
X161013795Y-99214111D01*
X160896739Y-99301739D01*
X160809111Y-99418795D01*
X160758011Y-99555795D01*
X160758011Y-99555797D01*
X160751500Y-99616345D01*
X160751500Y-102313654D01*
X157205102Y-102313654D01*
X156457534Y-101566086D01*
X156525629Y-101539126D01*
X156658492Y-101442595D01*
X156763175Y-101316055D01*
X156811631Y-101213079D01*
X157647703Y-102049151D01*
X157647704Y-102049150D01*
X157701393Y-101981828D01*
X157701400Y-101981817D01*
X157836290Y-101748181D01*
X157934851Y-101497052D01*
X157934857Y-101497033D01*
X157994886Y-101234028D01*
X157994886Y-101234026D01*
X158015047Y-100965004D01*
X158015047Y-100964995D01*
X157994886Y-100695973D01*
X157994886Y-100695971D01*
X157934857Y-100432966D01*
X157934851Y-100432947D01*
X157836290Y-100181818D01*
X157836291Y-100181818D01*
X157701397Y-99948177D01*
X157647704Y-99880847D01*
X156812546Y-100716004D01*
X156802812Y-100686044D01*
X156714814Y-100547381D01*
X156595097Y-100434960D01*
X156460487Y-100360957D01*
X157295150Y-99526296D01*
X157112517Y-99401779D01*
X157112516Y-99401778D01*
X156869460Y-99284730D01*
X156869462Y-99284730D01*
X156611662Y-99205209D01*
X156611656Y-99205207D01*
X156344898Y-99165000D01*
X156075101Y-99165000D01*
X155808343Y-99205207D01*
X155808337Y-99205209D01*
X155550538Y-99284730D01*
X155307485Y-99401778D01*
X155307476Y-99401783D01*
X155124848Y-99526296D01*
X155962465Y-100363913D01*
X155894371Y-100390874D01*
X155761508Y-100487405D01*
X155656825Y-100613945D01*
X155608368Y-100716921D01*
X154772295Y-99880848D01*
X154718600Y-99948180D01*
X154583709Y-100181818D01*
X154485148Y-100432947D01*
X154485142Y-100432966D01*
X154425113Y-100695971D01*
X154425113Y-100695973D01*
X154404953Y-100964995D01*
X154404953Y-100965004D01*
X152938500Y-100965004D01*
X152938500Y-99616362D01*
X152938499Y-99616345D01*
X152935157Y-99585270D01*
X152931989Y-99555799D01*
X152880889Y-99418796D01*
X152793261Y-99301739D01*
X152676204Y-99214111D01*
X152652332Y-99205207D01*
X152539203Y-99163011D01*
X152478654Y-99156500D01*
X152478638Y-99156500D01*
X149781362Y-99156500D01*
X149781345Y-99156500D01*
X149720797Y-99163011D01*
X149720795Y-99163011D01*
X149583795Y-99214111D01*
X149466739Y-99301739D01*
X149379111Y-99418795D01*
X149328011Y-99555795D01*
X149328011Y-99555797D01*
X149321500Y-99616345D01*
X149321500Y-102313654D01*
X146277966Y-102313654D01*
X146288500Y-102210545D01*
X146288499Y-100909456D01*
X146277887Y-100805574D01*
X146222115Y-100637262D01*
X146129030Y-100486348D01*
X146003652Y-100360970D01*
X146003648Y-100360967D01*
X145849255Y-100265736D01*
X145802530Y-100213788D01*
X145791309Y-100144826D01*
X145819152Y-100080744D01*
X145826671Y-100072517D01*
X145968105Y-99931082D01*
X146103600Y-99737578D01*
X146203429Y-99523492D01*
X146203432Y-99523486D01*
X146260636Y-99310000D01*
X145213686Y-99310000D01*
X145239493Y-99269844D01*
X145280000Y-99131889D01*
X145280000Y-98988111D01*
X145239493Y-98850156D01*
X145213686Y-98810000D01*
X146260636Y-98810000D01*
X146260635Y-98809999D01*
X146203432Y-98596513D01*
X146203429Y-98596507D01*
X146103600Y-98382422D01*
X146103599Y-98382420D01*
X145968113Y-98188926D01*
X145968108Y-98188920D01*
X145801079Y-98021891D01*
X145801073Y-98021886D01*
X145607579Y-97886400D01*
X145607577Y-97886399D01*
X145393492Y-97786570D01*
X145393483Y-97786566D01*
X145165326Y-97725432D01*
X145165316Y-97725430D01*
X145030000Y-97713590D01*
X145030000Y-98624498D01*
X144922315Y-98575320D01*
X144815763Y-98560000D01*
X144744237Y-98560000D01*
X144637685Y-98575320D01*
X144530000Y-98624498D01*
X144530000Y-97713591D01*
X144529999Y-97713590D01*
X144394683Y-97725430D01*
X144394673Y-97725432D01*
X144166516Y-97786566D01*
X144166507Y-97786570D01*
X143952422Y-97886399D01*
X143952420Y-97886400D01*
X143758926Y-98021886D01*
X143758920Y-98021891D01*
X143591894Y-98188917D01*
X143456399Y-98382421D01*
X143356570Y-98596507D01*
X143356567Y-98596513D01*
X143299364Y-98809999D01*
X143299364Y-98810000D01*
X144346314Y-98810000D01*
X144320507Y-98850156D01*
X144280000Y-98988111D01*
X144280000Y-99131889D01*
X144320507Y-99269844D01*
X144346314Y-99310000D01*
X143299364Y-99310000D01*
X143356567Y-99523486D01*
X143356570Y-99523492D01*
X143456399Y-99737577D01*
X143456400Y-99737579D01*
X143591886Y-99931073D01*
X143733329Y-100072517D01*
X143766813Y-100133840D01*
X143761829Y-100203532D01*
X143719957Y-100259465D01*
X143710744Y-100265736D01*
X143556351Y-100360967D01*
X143556347Y-100360970D01*
X143430971Y-100486346D01*
X143337886Y-100637259D01*
X143337884Y-100637264D01*
X143282113Y-100805572D01*
X143271500Y-100909447D01*
X143271500Y-102210537D01*
X140917629Y-102210537D01*
X140919212Y-102167235D01*
X140889586Y-101897982D01*
X140821072Y-101635912D01*
X140715130Y-101386610D01*
X140574018Y-101155390D01*
X140516625Y-101086425D01*
X140400746Y-100947180D01*
X140400740Y-100947175D01*
X140199002Y-100766418D01*
X139973092Y-100616957D01*
X139961336Y-100611446D01*
X139727824Y-100501980D01*
X139727819Y-100501978D01*
X139727814Y-100501976D01*
X139468442Y-100423942D01*
X139468428Y-100423939D01*
X139352791Y-100406921D01*
X139200439Y-100384500D01*
X138997369Y-100384500D01*
X138997364Y-100384500D01*
X138794844Y-100399323D01*
X138794831Y-100399325D01*
X138530453Y-100458217D01*
X138530446Y-100458220D01*
X138277439Y-100554987D01*
X138041226Y-100687557D01*
X138041224Y-100687558D01*
X138041223Y-100687559D01*
X137978893Y-100735688D01*
X137826822Y-100853112D01*
X137638822Y-101048109D01*
X137638816Y-101048116D01*
X137481202Y-101268419D01*
X137481199Y-101268424D01*
X137357350Y-101509309D01*
X137357343Y-101509327D01*
X137269884Y-101765685D01*
X137269881Y-101765699D01*
X137245449Y-101897975D01*
X137229076Y-101986620D01*
X137220681Y-102032068D01*
X137220680Y-102032075D01*
X137210787Y-102302763D01*
X135755500Y-102302763D01*
X135755500Y-94047763D01*
X201980787Y-94047763D01*
X202010413Y-94317013D01*
X202010415Y-94317024D01*
X202078926Y-94579082D01*
X202078928Y-94579088D01*
X202184870Y-94828390D01*
X202256998Y-94946575D01*
X202325979Y-95059605D01*
X202325986Y-95059615D01*
X202499253Y-95267819D01*
X202499259Y-95267824D01*
X202700998Y-95448582D01*
X202926910Y-95598044D01*
X203172176Y-95713020D01*
X203172183Y-95713022D01*
X203172185Y-95713023D01*
X203431557Y-95791057D01*
X203431564Y-95791058D01*
X203431569Y-95791060D01*
X203699561Y-95830500D01*
X203699566Y-95830500D01*
X203902636Y-95830500D01*
X203954133Y-95826730D01*
X204105156Y-95815677D01*
X204217758Y-95790593D01*
X204369546Y-95756782D01*
X204369548Y-95756781D01*
X204369553Y-95756780D01*
X204622558Y-95660014D01*
X204858777Y-95527441D01*
X205073177Y-95361888D01*
X205261186Y-95166881D01*
X205418799Y-94946579D01*
X205492787Y-94802669D01*
X205542649Y-94705690D01*
X205542651Y-94705684D01*
X205542656Y-94705675D01*
X205630118Y-94449305D01*
X205679319Y-94182933D01*
X205689212Y-93912235D01*
X205659586Y-93642982D01*
X205591072Y-93380912D01*
X205485130Y-93131610D01*
X205344018Y-92900390D01*
X205254747Y-92793119D01*
X205170746Y-92692180D01*
X205170740Y-92692175D01*
X204969002Y-92511418D01*
X204743092Y-92361957D01*
X204743090Y-92361956D01*
X204497824Y-92246980D01*
X204497819Y-92246978D01*
X204497814Y-92246976D01*
X204238442Y-92168942D01*
X204238428Y-92168939D01*
X204122791Y-92151921D01*
X203970439Y-92129500D01*
X203767369Y-92129500D01*
X203767364Y-92129500D01*
X203564844Y-92144323D01*
X203564831Y-92144325D01*
X203300453Y-92203217D01*
X203300446Y-92203220D01*
X203047439Y-92299987D01*
X202811226Y-92432557D01*
X202596822Y-92598112D01*
X202408822Y-92793109D01*
X202408816Y-92793116D01*
X202251202Y-93013419D01*
X202251199Y-93013424D01*
X202127350Y-93254309D01*
X202127343Y-93254327D01*
X202039884Y-93510685D01*
X202039881Y-93510699D01*
X201990681Y-93777068D01*
X201990680Y-93777075D01*
X201980787Y-94047763D01*
X135755500Y-94047763D01*
X135755500Y-85090005D01*
X186970540Y-85090005D01*
X186990357Y-85405012D01*
X186990359Y-85405020D01*
X187049505Y-85715072D01*
X187049507Y-85715077D01*
X187147044Y-86015267D01*
X187147046Y-86015272D01*
X187281436Y-86300865D01*
X187281442Y-86300876D01*
X187450561Y-86567365D01*
X187450563Y-86567368D01*
X187450568Y-86567375D01*
X187591516Y-86737751D01*
X187651772Y-86810588D01*
X187881858Y-87026652D01*
X187881868Y-87026660D01*
X188137209Y-87212176D01*
X188137214Y-87212178D01*
X188137221Y-87212184D01*
X188413821Y-87364247D01*
X188413826Y-87364249D01*
X188413828Y-87364250D01*
X188413829Y-87364251D01*
X188707294Y-87480442D01*
X188707297Y-87480443D01*
X189013021Y-87558939D01*
X189013025Y-87558940D01*
X189078717Y-87567238D01*
X189326167Y-87598499D01*
X189326176Y-87598499D01*
X189326179Y-87598500D01*
X189326181Y-87598500D01*
X189641819Y-87598500D01*
X189641821Y-87598500D01*
X189641824Y-87598499D01*
X189641832Y-87598499D01*
X189828692Y-87574892D01*
X189954975Y-87558940D01*
X190260702Y-87480443D01*
X190260705Y-87480442D01*
X190554170Y-87364251D01*
X190554171Y-87364250D01*
X190554169Y-87364250D01*
X190554179Y-87364247D01*
X190830779Y-87212184D01*
X191086140Y-87026654D01*
X191316233Y-86810582D01*
X191517432Y-86567375D01*
X191686562Y-86300869D01*
X191820956Y-86015266D01*
X191918495Y-85715072D01*
X191977641Y-85405020D01*
X191997460Y-85090000D01*
X191997460Y-85089994D01*
X191977642Y-84774987D01*
X191977641Y-84774980D01*
X191918495Y-84464928D01*
X191820956Y-84164734D01*
X191686562Y-83879131D01*
X191686557Y-83879123D01*
X191517438Y-83612634D01*
X191517436Y-83612632D01*
X191517432Y-83612625D01*
X191316233Y-83369418D01*
X191316232Y-83369417D01*
X191316227Y-83369411D01*
X191086141Y-83153347D01*
X191086131Y-83153339D01*
X190830790Y-82967823D01*
X190830783Y-82967818D01*
X190830779Y-82967816D01*
X190554179Y-82815753D01*
X190554176Y-82815751D01*
X190554171Y-82815749D01*
X190554170Y-82815748D01*
X190260705Y-82699557D01*
X190260702Y-82699556D01*
X189954978Y-82621060D01*
X189954965Y-82621058D01*
X189641832Y-82581500D01*
X189641821Y-82581500D01*
X189326179Y-82581500D01*
X189326167Y-82581500D01*
X189013034Y-82621058D01*
X189013021Y-82621060D01*
X188707297Y-82699556D01*
X188707294Y-82699557D01*
X188413829Y-82815748D01*
X188413828Y-82815749D01*
X188137221Y-82967816D01*
X188137209Y-82967823D01*
X187881868Y-83153339D01*
X187881858Y-83153347D01*
X187651772Y-83369411D01*
X187450561Y-83612634D01*
X187281442Y-83879123D01*
X187281436Y-83879134D01*
X187147046Y-84164727D01*
X187147044Y-84164732D01*
X187056537Y-84443283D01*
X187049505Y-84464928D01*
X187016220Y-84639409D01*
X186990357Y-84774987D01*
X186970540Y-85089994D01*
X186970540Y-85090005D01*
X135755500Y-85090005D01*
X135755500Y-71120005D01*
X186970540Y-71120005D01*
X186990357Y-71435012D01*
X186990359Y-71435020D01*
X187049505Y-71745072D01*
X187049507Y-71745077D01*
X187147044Y-72045267D01*
X187147046Y-72045272D01*
X187281436Y-72330865D01*
X187281442Y-72330876D01*
X187450561Y-72597365D01*
X187450563Y-72597368D01*
X187450568Y-72597375D01*
X187591516Y-72767751D01*
X187651772Y-72840588D01*
X187881858Y-73056652D01*
X187881868Y-73056660D01*
X188137209Y-73242176D01*
X188137214Y-73242178D01*
X188137221Y-73242184D01*
X188413821Y-73394247D01*
X188413826Y-73394249D01*
X188413828Y-73394250D01*
X188413829Y-73394251D01*
X188707294Y-73510442D01*
X188707297Y-73510443D01*
X189013021Y-73588939D01*
X189013025Y-73588940D01*
X189078717Y-73597238D01*
X189326167Y-73628499D01*
X189326176Y-73628499D01*
X189326179Y-73628500D01*
X189326181Y-73628500D01*
X189641819Y-73628500D01*
X189641821Y-73628500D01*
X189641824Y-73628499D01*
X189641832Y-73628499D01*
X189828693Y-73604892D01*
X189954975Y-73588940D01*
X190260702Y-73510443D01*
X190260705Y-73510442D01*
X190554170Y-73394251D01*
X190554171Y-73394250D01*
X190554169Y-73394250D01*
X190554179Y-73394247D01*
X190830779Y-73242184D01*
X191086140Y-73056654D01*
X191316233Y-72840582D01*
X191517432Y-72597375D01*
X191686562Y-72330869D01*
X191820956Y-72045266D01*
X191918495Y-71745072D01*
X191977641Y-71435020D01*
X191997460Y-71120000D01*
X191997460Y-71119994D01*
X191977642Y-70804987D01*
X191977641Y-70804980D01*
X191918495Y-70494928D01*
X191820956Y-70194734D01*
X191686562Y-69909131D01*
X191686557Y-69909123D01*
X191517438Y-69642634D01*
X191517436Y-69642632D01*
X191517432Y-69642625D01*
X191316233Y-69399418D01*
X191316232Y-69399417D01*
X191316227Y-69399411D01*
X191086141Y-69183347D01*
X191086131Y-69183339D01*
X190830790Y-68997823D01*
X190830783Y-68997818D01*
X190830779Y-68997816D01*
X190554179Y-68845753D01*
X190554176Y-68845751D01*
X190554171Y-68845749D01*
X190554170Y-68845748D01*
X190260705Y-68729557D01*
X190260702Y-68729556D01*
X189954978Y-68651060D01*
X189954965Y-68651058D01*
X189641832Y-68611500D01*
X189641821Y-68611500D01*
X189326179Y-68611500D01*
X189326167Y-68611500D01*
X189013034Y-68651058D01*
X189013021Y-68651060D01*
X188707297Y-68729556D01*
X188707294Y-68729557D01*
X188413829Y-68845748D01*
X188413828Y-68845749D01*
X188137221Y-68997816D01*
X188137209Y-68997823D01*
X187881868Y-69183339D01*
X187881858Y-69183347D01*
X187651772Y-69399411D01*
X187450561Y-69642634D01*
X187281442Y-69909123D01*
X187281436Y-69909134D01*
X187147046Y-70194727D01*
X187147044Y-70194732D01*
X187056537Y-70473283D01*
X187049505Y-70494928D01*
X187016220Y-70669409D01*
X186990357Y-70804987D01*
X186970540Y-71119994D01*
X186970540Y-71120005D01*
X135755500Y-71120005D01*
X135755500Y-67377763D01*
X137210787Y-67377763D01*
X137240413Y-67647013D01*
X137240415Y-67647024D01*
X137308926Y-67909082D01*
X137308928Y-67909088D01*
X137414870Y-68158390D01*
X137486998Y-68276575D01*
X137555979Y-68389605D01*
X137555986Y-68389615D01*
X137729253Y-68597819D01*
X137729259Y-68597824D01*
X137834240Y-68691887D01*
X137930998Y-68778582D01*
X138156910Y-68928044D01*
X138402176Y-69043020D01*
X138402183Y-69043022D01*
X138402185Y-69043023D01*
X138661557Y-69121057D01*
X138661564Y-69121058D01*
X138661569Y-69121060D01*
X138929561Y-69160500D01*
X138929566Y-69160500D01*
X139132636Y-69160500D01*
X139184133Y-69156730D01*
X139335156Y-69145677D01*
X139447758Y-69120593D01*
X139599546Y-69086782D01*
X139599548Y-69086781D01*
X139599553Y-69086780D01*
X139852558Y-68990014D01*
X140088777Y-68857441D01*
X140303177Y-68691888D01*
X140491186Y-68496881D01*
X140648799Y-68276579D01*
X140722787Y-68132669D01*
X140772649Y-68035690D01*
X140772651Y-68035684D01*
X140772656Y-68035675D01*
X140860118Y-67779305D01*
X140909319Y-67512933D01*
X140919212Y-67242235D01*
X140889586Y-66972982D01*
X140821072Y-66710912D01*
X140715130Y-66461610D01*
X140574018Y-66230390D01*
X140484747Y-66123119D01*
X140400746Y-66022180D01*
X140400740Y-66022175D01*
X140199002Y-65841418D01*
X139973092Y-65691957D01*
X139973090Y-65691956D01*
X139727824Y-65576980D01*
X139727819Y-65576978D01*
X139727814Y-65576976D01*
X139468442Y-65498942D01*
X139468428Y-65498939D01*
X139352791Y-65481921D01*
X139200439Y-65459500D01*
X138997369Y-65459500D01*
X138997364Y-65459500D01*
X138794844Y-65474323D01*
X138794831Y-65474325D01*
X138530453Y-65533217D01*
X138530446Y-65533220D01*
X138277439Y-65629987D01*
X138041226Y-65762557D01*
X137826822Y-65928112D01*
X137638822Y-66123109D01*
X137638816Y-66123116D01*
X137481202Y-66343419D01*
X137481199Y-66343424D01*
X137357350Y-66584309D01*
X137357343Y-66584327D01*
X137269884Y-66840685D01*
X137269881Y-66840699D01*
X137220681Y-67107068D01*
X137220680Y-67107075D01*
X137210787Y-67377763D01*
X135755500Y-67377763D01*
X135755500Y-64063039D01*
X135755500Y-64063038D01*
X135747809Y-64036846D01*
X135744050Y-64019564D01*
X135740165Y-63992546D01*
X135740165Y-63992543D01*
X135740163Y-63992538D01*
X135728826Y-63967713D01*
X135722643Y-63951136D01*
X135714953Y-63924948D01*
X135714953Y-63924946D01*
X135700192Y-63901978D01*
X135691714Y-63886451D01*
X135691005Y-63884899D01*
X135680377Y-63861627D01*
X135662500Y-63840996D01*
X135651905Y-63826844D01*
X135637143Y-63803872D01*
X135637142Y-63803871D01*
X135616510Y-63785992D01*
X135604006Y-63773488D01*
X135586128Y-63752857D01*
X135586123Y-63752853D01*
X135563160Y-63738095D01*
X135549000Y-63727496D01*
X135542007Y-63721437D01*
X135528373Y-63709623D01*
X135503541Y-63698282D01*
X135488019Y-63689806D01*
X135465053Y-63675047D01*
X135465051Y-63675046D01*
X135438858Y-63667355D01*
X135422288Y-63661174D01*
X135397457Y-63649835D01*
X135370423Y-63645947D01*
X135353154Y-63642190D01*
X135326963Y-63634500D01*
X135326961Y-63634500D01*
X135290799Y-63634500D01*
X120639500Y-63634500D01*
X120572461Y-63614815D01*
X120526706Y-63562011D01*
X120515500Y-63510500D01*
X120515500Y-62297763D01*
X201980787Y-62297763D01*
X202010413Y-62567013D01*
X202010415Y-62567024D01*
X202078926Y-62829082D01*
X202078928Y-62829088D01*
X202184870Y-63078390D01*
X202256998Y-63196575D01*
X202325979Y-63309605D01*
X202325986Y-63309615D01*
X202499253Y-63517819D01*
X202499259Y-63517824D01*
X202700998Y-63698582D01*
X202926910Y-63848044D01*
X203172176Y-63963020D01*
X203172183Y-63963022D01*
X203172185Y-63963023D01*
X203431557Y-64041057D01*
X203431564Y-64041058D01*
X203431569Y-64041060D01*
X203699561Y-64080500D01*
X203699566Y-64080500D01*
X203902636Y-64080500D01*
X203954133Y-64076730D01*
X204105156Y-64065677D01*
X204272763Y-64028341D01*
X204369546Y-64006782D01*
X204369548Y-64006781D01*
X204369553Y-64006780D01*
X204622558Y-63910014D01*
X204858777Y-63777441D01*
X205073177Y-63611888D01*
X205261186Y-63416881D01*
X205418799Y-63196579D01*
X205492787Y-63052669D01*
X205542649Y-62955690D01*
X205542651Y-62955684D01*
X205542656Y-62955675D01*
X205630118Y-62699305D01*
X205679319Y-62432933D01*
X205689212Y-62162235D01*
X205659586Y-61892982D01*
X205591072Y-61630912D01*
X205485130Y-61381610D01*
X205344018Y-61150390D01*
X205254747Y-61043119D01*
X205170746Y-60942180D01*
X205170740Y-60942175D01*
X204969002Y-60761418D01*
X204743092Y-60611957D01*
X204743090Y-60611956D01*
X204497824Y-60496980D01*
X204497819Y-60496978D01*
X204497814Y-60496976D01*
X204238442Y-60418942D01*
X204238428Y-60418939D01*
X204122791Y-60401921D01*
X203970439Y-60379500D01*
X203767369Y-60379500D01*
X203767364Y-60379500D01*
X203564844Y-60394323D01*
X203564831Y-60394325D01*
X203300453Y-60453217D01*
X203300446Y-60453220D01*
X203047439Y-60549987D01*
X202811226Y-60682557D01*
X202811224Y-60682558D01*
X202811223Y-60682559D01*
X202748893Y-60730688D01*
X202596822Y-60848112D01*
X202408822Y-61043109D01*
X202408816Y-61043116D01*
X202251202Y-61263419D01*
X202251199Y-61263424D01*
X202127350Y-61504309D01*
X202127343Y-61504327D01*
X202039884Y-61760685D01*
X202039881Y-61760699D01*
X202015449Y-61892975D01*
X201994030Y-62008939D01*
X201990681Y-62027068D01*
X201990680Y-62027075D01*
X201980787Y-62297763D01*
X120515500Y-62297763D01*
X120515500Y-59540005D01*
X121686540Y-59540005D01*
X121706357Y-59855012D01*
X121706359Y-59855020D01*
X121765505Y-60165072D01*
X121765507Y-60165077D01*
X121863044Y-60465267D01*
X121863046Y-60465272D01*
X121997436Y-60750865D01*
X121997442Y-60750876D01*
X122166561Y-61017365D01*
X122166563Y-61017368D01*
X122166568Y-61017375D01*
X122364273Y-61256359D01*
X122367772Y-61260588D01*
X122597858Y-61476652D01*
X122597868Y-61476660D01*
X122853209Y-61662176D01*
X122853214Y-61662178D01*
X122853221Y-61662184D01*
X123129821Y-61814247D01*
X123129826Y-61814249D01*
X123129828Y-61814250D01*
X123129829Y-61814251D01*
X123423294Y-61930442D01*
X123423297Y-61930443D01*
X123562555Y-61966198D01*
X123729025Y-62008940D01*
X123794717Y-62017238D01*
X124042167Y-62048499D01*
X124042176Y-62048499D01*
X124042179Y-62048500D01*
X124042181Y-62048500D01*
X124357819Y-62048500D01*
X124357821Y-62048500D01*
X124357824Y-62048499D01*
X124357832Y-62048499D01*
X124544692Y-62024892D01*
X124670975Y-62008940D01*
X124976702Y-61930443D01*
X124976705Y-61930442D01*
X125270170Y-61814251D01*
X125270171Y-61814250D01*
X125270169Y-61814250D01*
X125270179Y-61814247D01*
X125546779Y-61662184D01*
X125802140Y-61476654D01*
X125973257Y-61315963D01*
X126032227Y-61260588D01*
X126032228Y-61260586D01*
X126032233Y-61260582D01*
X126233432Y-61017375D01*
X126269843Y-60960001D01*
X129846502Y-60960001D01*
X129866456Y-61188081D01*
X129866457Y-61188089D01*
X129925714Y-61409238D01*
X129925718Y-61409249D01*
X129970053Y-61504325D01*
X130022477Y-61616749D01*
X130153802Y-61804300D01*
X130315700Y-61966198D01*
X130503251Y-62097523D01*
X130558445Y-62123260D01*
X130710750Y-62194281D01*
X130710752Y-62194281D01*
X130710757Y-62194284D01*
X130931913Y-62253543D01*
X131094832Y-62267796D01*
X131159998Y-62273498D01*
X131160000Y-62273498D01*
X131160002Y-62273498D01*
X131217139Y-62268499D01*
X131388087Y-62253543D01*
X131609243Y-62194284D01*
X131816749Y-62097523D01*
X132004300Y-61966198D01*
X132166198Y-61804300D01*
X132297523Y-61616749D01*
X132394284Y-61409243D01*
X132425225Y-61293769D01*
X132461590Y-61234109D01*
X132524437Y-61203580D01*
X132593812Y-61211875D01*
X132647690Y-61256360D01*
X132664775Y-61293770D01*
X132695713Y-61409235D01*
X132695718Y-61409249D01*
X132740053Y-61504325D01*
X132792477Y-61616749D01*
X132923802Y-61804300D01*
X133085700Y-61966198D01*
X133273251Y-62097523D01*
X133328445Y-62123260D01*
X133480750Y-62194281D01*
X133480752Y-62194281D01*
X133480757Y-62194284D01*
X133701913Y-62253543D01*
X133864832Y-62267796D01*
X133929998Y-62273498D01*
X133930000Y-62273498D01*
X133930002Y-62273498D01*
X133987139Y-62268499D01*
X134158087Y-62253543D01*
X134379243Y-62194284D01*
X134586749Y-62097523D01*
X134774300Y-61966198D01*
X134936198Y-61804300D01*
X135067523Y-61616749D01*
X135164284Y-61409243D01*
X135195225Y-61293769D01*
X135231590Y-61234109D01*
X135294437Y-61203580D01*
X135363812Y-61211875D01*
X135417690Y-61256360D01*
X135434775Y-61293770D01*
X135465713Y-61409235D01*
X135465718Y-61409249D01*
X135510053Y-61504325D01*
X135562477Y-61616749D01*
X135693802Y-61804300D01*
X135855700Y-61966198D01*
X136043251Y-62097523D01*
X136098445Y-62123260D01*
X136250750Y-62194281D01*
X136250752Y-62194281D01*
X136250757Y-62194284D01*
X136471913Y-62253543D01*
X136634832Y-62267796D01*
X136699998Y-62273498D01*
X136700000Y-62273498D01*
X136700002Y-62273498D01*
X136757139Y-62268499D01*
X136928087Y-62253543D01*
X137149243Y-62194284D01*
X137356749Y-62097523D01*
X137544300Y-61966198D01*
X137706198Y-61804300D01*
X137837523Y-61616749D01*
X137934284Y-61409243D01*
X137965225Y-61293769D01*
X138001590Y-61234109D01*
X138064437Y-61203580D01*
X138133812Y-61211875D01*
X138187690Y-61256360D01*
X138204775Y-61293770D01*
X138235713Y-61409235D01*
X138235718Y-61409249D01*
X138280053Y-61504325D01*
X138332477Y-61616749D01*
X138463802Y-61804300D01*
X138625700Y-61966198D01*
X138813251Y-62097523D01*
X138868445Y-62123260D01*
X139020750Y-62194281D01*
X139020752Y-62194281D01*
X139020757Y-62194284D01*
X139241913Y-62253543D01*
X139404832Y-62267796D01*
X139469998Y-62273498D01*
X139470000Y-62273498D01*
X139470002Y-62273498D01*
X139527139Y-62268499D01*
X139698087Y-62253543D01*
X139919243Y-62194284D01*
X140126749Y-62097523D01*
X140314300Y-61966198D01*
X140476198Y-61804300D01*
X140607523Y-61616749D01*
X140695117Y-61428900D01*
X140741290Y-61376460D01*
X140808483Y-61357308D01*
X140875365Y-61377524D01*
X140920699Y-61430689D01*
X140931500Y-61481304D01*
X140931500Y-61808654D01*
X140938011Y-61869202D01*
X140938011Y-61869204D01*
X140974189Y-61966198D01*
X140989111Y-62006204D01*
X141076739Y-62123261D01*
X141193796Y-62210889D01*
X141330799Y-62261989D01*
X141358050Y-62264918D01*
X141391345Y-62268499D01*
X141391362Y-62268500D01*
X143088638Y-62268500D01*
X143088654Y-62268499D01*
X143115692Y-62265591D01*
X143149201Y-62261989D01*
X143286204Y-62210889D01*
X143403261Y-62123261D01*
X143490889Y-62006204D01*
X143541989Y-61869201D01*
X143547897Y-61814250D01*
X143548499Y-61808654D01*
X143548500Y-61808637D01*
X143548500Y-60111362D01*
X143548499Y-60111345D01*
X143545157Y-60080270D01*
X143541989Y-60050799D01*
X143490889Y-59913796D01*
X143403261Y-59796739D01*
X143286204Y-59709111D01*
X143149203Y-59658011D01*
X143088654Y-59651500D01*
X143088638Y-59651500D01*
X141391362Y-59651500D01*
X141391345Y-59651500D01*
X141330797Y-59658011D01*
X141330795Y-59658011D01*
X141193795Y-59709111D01*
X141076739Y-59796739D01*
X140989111Y-59913795D01*
X140938011Y-60050795D01*
X140938011Y-60050797D01*
X140931500Y-60111345D01*
X140931500Y-60438695D01*
X140911815Y-60505734D01*
X140859011Y-60551489D01*
X140789853Y-60561433D01*
X140726297Y-60532408D01*
X140695118Y-60491100D01*
X140607523Y-60303251D01*
X140607522Y-60303250D01*
X140476198Y-60115700D01*
X140314300Y-59953802D01*
X140126749Y-59822477D01*
X140126745Y-59822475D01*
X139919249Y-59725718D01*
X139919238Y-59725714D01*
X139698089Y-59666457D01*
X139698081Y-59666456D01*
X139470002Y-59646502D01*
X139469998Y-59646502D01*
X139241918Y-59666456D01*
X139241910Y-59666457D01*
X139020761Y-59725714D01*
X139020750Y-59725718D01*
X138813254Y-59822475D01*
X138813252Y-59822476D01*
X138813249Y-59822477D01*
X138813251Y-59822477D01*
X138625700Y-59953802D01*
X138625698Y-59953803D01*
X138625695Y-59953806D01*
X138463806Y-60115695D01*
X138463803Y-60115698D01*
X138463802Y-60115700D01*
X138429228Y-60165077D01*
X138332476Y-60303252D01*
X138332475Y-60303254D01*
X138235718Y-60510750D01*
X138235714Y-60510761D01*
X138204775Y-60626230D01*
X138168410Y-60685890D01*
X138105563Y-60716419D01*
X138036187Y-60708124D01*
X137982309Y-60663639D01*
X137965225Y-60626230D01*
X137934285Y-60510761D01*
X137934281Y-60510750D01*
X137837524Y-60303254D01*
X137837523Y-60303252D01*
X137837523Y-60303251D01*
X137706198Y-60115700D01*
X137544300Y-59953802D01*
X137356749Y-59822477D01*
X137356745Y-59822475D01*
X137149249Y-59725718D01*
X137149238Y-59725714D01*
X136928089Y-59666457D01*
X136928081Y-59666456D01*
X136700002Y-59646502D01*
X136699998Y-59646502D01*
X136471918Y-59666456D01*
X136471910Y-59666457D01*
X136250761Y-59725714D01*
X136250750Y-59725718D01*
X136043254Y-59822475D01*
X136043252Y-59822476D01*
X136043249Y-59822477D01*
X136043251Y-59822477D01*
X135855700Y-59953802D01*
X135855698Y-59953803D01*
X135855695Y-59953806D01*
X135693806Y-60115695D01*
X135693803Y-60115698D01*
X135693802Y-60115700D01*
X135659228Y-60165077D01*
X135562476Y-60303252D01*
X135562475Y-60303254D01*
X135465718Y-60510750D01*
X135465714Y-60510761D01*
X135434775Y-60626230D01*
X135398410Y-60685890D01*
X135335563Y-60716419D01*
X135266187Y-60708124D01*
X135212309Y-60663639D01*
X135195225Y-60626230D01*
X135164285Y-60510761D01*
X135164281Y-60510750D01*
X135067524Y-60303254D01*
X135067523Y-60303252D01*
X135067523Y-60303251D01*
X134936198Y-60115700D01*
X134774300Y-59953802D01*
X134586749Y-59822477D01*
X134586745Y-59822475D01*
X134379249Y-59725718D01*
X134379238Y-59725714D01*
X134158089Y-59666457D01*
X134158081Y-59666456D01*
X133930002Y-59646502D01*
X133929998Y-59646502D01*
X133701918Y-59666456D01*
X133701910Y-59666457D01*
X133480761Y-59725714D01*
X133480750Y-59725718D01*
X133273254Y-59822475D01*
X133273252Y-59822476D01*
X133273249Y-59822477D01*
X133273251Y-59822477D01*
X133085700Y-59953802D01*
X133085698Y-59953803D01*
X133085695Y-59953806D01*
X132923806Y-60115695D01*
X132923803Y-60115698D01*
X132923802Y-60115700D01*
X132889228Y-60165077D01*
X132792476Y-60303252D01*
X132792475Y-60303254D01*
X132695718Y-60510750D01*
X132695714Y-60510761D01*
X132664775Y-60626230D01*
X132628410Y-60685890D01*
X132565563Y-60716419D01*
X132496187Y-60708124D01*
X132442309Y-60663639D01*
X132425225Y-60626230D01*
X132394285Y-60510761D01*
X132394281Y-60510750D01*
X132297524Y-60303254D01*
X132297523Y-60303252D01*
X132297523Y-60303251D01*
X132166198Y-60115700D01*
X132004300Y-59953802D01*
X131816749Y-59822477D01*
X131816745Y-59822475D01*
X131609249Y-59725718D01*
X131609238Y-59725714D01*
X131388089Y-59666457D01*
X131388081Y-59666456D01*
X131160002Y-59646502D01*
X131159998Y-59646502D01*
X130931918Y-59666456D01*
X130931910Y-59666457D01*
X130710761Y-59725714D01*
X130710750Y-59725718D01*
X130503254Y-59822475D01*
X130503252Y-59822476D01*
X130503249Y-59822477D01*
X130503251Y-59822477D01*
X130315700Y-59953802D01*
X130315698Y-59953803D01*
X130315695Y-59953806D01*
X130153806Y-60115695D01*
X130153803Y-60115698D01*
X130153802Y-60115700D01*
X130119228Y-60165077D01*
X130022476Y-60303252D01*
X130022475Y-60303254D01*
X129925718Y-60510750D01*
X129925714Y-60510761D01*
X129866457Y-60731910D01*
X129866456Y-60731918D01*
X129846502Y-60959998D01*
X129846502Y-60960001D01*
X126269843Y-60960001D01*
X126402562Y-60750869D01*
X126536956Y-60465266D01*
X126634495Y-60165072D01*
X126693641Y-59855020D01*
X126695689Y-59822477D01*
X126713460Y-59540005D01*
X146686540Y-59540005D01*
X146706357Y-59855012D01*
X146706359Y-59855020D01*
X146765505Y-60165072D01*
X146765507Y-60165077D01*
X146863044Y-60465267D01*
X146863046Y-60465272D01*
X146997436Y-60750865D01*
X146997442Y-60750876D01*
X147166561Y-61017365D01*
X147166563Y-61017368D01*
X147166568Y-61017375D01*
X147364273Y-61256359D01*
X147367772Y-61260588D01*
X147597858Y-61476652D01*
X147597868Y-61476660D01*
X147853209Y-61662176D01*
X147853214Y-61662178D01*
X147853221Y-61662184D01*
X148129821Y-61814247D01*
X148129826Y-61814249D01*
X148129828Y-61814250D01*
X148129829Y-61814251D01*
X148423294Y-61930442D01*
X148423297Y-61930443D01*
X148562555Y-61966198D01*
X148729025Y-62008940D01*
X148794717Y-62017238D01*
X149042167Y-62048499D01*
X149042176Y-62048499D01*
X149042179Y-62048500D01*
X149042181Y-62048500D01*
X149357819Y-62048500D01*
X149357821Y-62048500D01*
X149357824Y-62048499D01*
X149357832Y-62048499D01*
X149544693Y-62024892D01*
X149670975Y-62008940D01*
X149976702Y-61930443D01*
X149976705Y-61930442D01*
X150270170Y-61814251D01*
X150270171Y-61814250D01*
X150270169Y-61814250D01*
X150270179Y-61814247D01*
X150546779Y-61662184D01*
X150802140Y-61476654D01*
X150973257Y-61315963D01*
X151032227Y-61260588D01*
X151032228Y-61260586D01*
X151032233Y-61260582D01*
X151233432Y-61017375D01*
X151402562Y-60750869D01*
X151536956Y-60465266D01*
X151634495Y-60165072D01*
X151693641Y-59855020D01*
X151695689Y-59822477D01*
X151713460Y-59540005D01*
X161691540Y-59540005D01*
X161711357Y-59855012D01*
X161711359Y-59855020D01*
X161770505Y-60165072D01*
X161770507Y-60165077D01*
X161868044Y-60465267D01*
X161868046Y-60465272D01*
X162002436Y-60750865D01*
X162002442Y-60750876D01*
X162171561Y-61017365D01*
X162171563Y-61017368D01*
X162171568Y-61017375D01*
X162369273Y-61256359D01*
X162372772Y-61260588D01*
X162602858Y-61476652D01*
X162602868Y-61476660D01*
X162858209Y-61662176D01*
X162858214Y-61662178D01*
X162858221Y-61662184D01*
X163134821Y-61814247D01*
X163134826Y-61814249D01*
X163134828Y-61814250D01*
X163134829Y-61814251D01*
X163428294Y-61930442D01*
X163428297Y-61930443D01*
X163567555Y-61966198D01*
X163734025Y-62008940D01*
X163799717Y-62017238D01*
X164047167Y-62048499D01*
X164047176Y-62048499D01*
X164047179Y-62048500D01*
X164047181Y-62048500D01*
X164362819Y-62048500D01*
X164362821Y-62048500D01*
X164362824Y-62048499D01*
X164362832Y-62048499D01*
X164549692Y-62024892D01*
X164675975Y-62008940D01*
X164981702Y-61930443D01*
X164981705Y-61930442D01*
X165275170Y-61814251D01*
X165275171Y-61814250D01*
X165275169Y-61814250D01*
X165275179Y-61814247D01*
X165551779Y-61662184D01*
X165807140Y-61476654D01*
X165978257Y-61315963D01*
X166037227Y-61260588D01*
X166037228Y-61260586D01*
X166037233Y-61260582D01*
X166238432Y-61017375D01*
X166274843Y-60960001D01*
X169851502Y-60960001D01*
X169871456Y-61188081D01*
X169871457Y-61188089D01*
X169930714Y-61409238D01*
X169930718Y-61409249D01*
X169975053Y-61504325D01*
X170027477Y-61616749D01*
X170158802Y-61804300D01*
X170320700Y-61966198D01*
X170508251Y-62097523D01*
X170563445Y-62123260D01*
X170715750Y-62194281D01*
X170715752Y-62194281D01*
X170715757Y-62194284D01*
X170936913Y-62253543D01*
X171099832Y-62267796D01*
X171164998Y-62273498D01*
X171165000Y-62273498D01*
X171165002Y-62273498D01*
X171222139Y-62268499D01*
X171393087Y-62253543D01*
X171614243Y-62194284D01*
X171821749Y-62097523D01*
X172009300Y-61966198D01*
X172171198Y-61804300D01*
X172302523Y-61616749D01*
X172399284Y-61409243D01*
X172430225Y-61293768D01*
X172466588Y-61234110D01*
X172529435Y-61203580D01*
X172598811Y-61211874D01*
X172652689Y-61256359D01*
X172669774Y-61293769D01*
X172700714Y-61409237D01*
X172700718Y-61409249D01*
X172745053Y-61504325D01*
X172797477Y-61616749D01*
X172928802Y-61804300D01*
X173090700Y-61966198D01*
X173278251Y-62097523D01*
X173333445Y-62123260D01*
X173485750Y-62194281D01*
X173485752Y-62194281D01*
X173485757Y-62194284D01*
X173706913Y-62253543D01*
X173869832Y-62267796D01*
X173934998Y-62273498D01*
X173935000Y-62273498D01*
X173935002Y-62273498D01*
X173992139Y-62268499D01*
X174163087Y-62253543D01*
X174384243Y-62194284D01*
X174591749Y-62097523D01*
X174779300Y-61966198D01*
X174941198Y-61804300D01*
X175072523Y-61616749D01*
X175169284Y-61409243D01*
X175200225Y-61293769D01*
X175236590Y-61234109D01*
X175299437Y-61203580D01*
X175368812Y-61211875D01*
X175422690Y-61256360D01*
X175439775Y-61293770D01*
X175470713Y-61409235D01*
X175470718Y-61409249D01*
X175515053Y-61504325D01*
X175567477Y-61616749D01*
X175698802Y-61804300D01*
X175860700Y-61966198D01*
X176048251Y-62097523D01*
X176103445Y-62123260D01*
X176255750Y-62194281D01*
X176255752Y-62194281D01*
X176255757Y-62194284D01*
X176476913Y-62253543D01*
X176639832Y-62267796D01*
X176704998Y-62273498D01*
X176705000Y-62273498D01*
X176705002Y-62273498D01*
X176762139Y-62268499D01*
X176933087Y-62253543D01*
X177154243Y-62194284D01*
X177361749Y-62097523D01*
X177549300Y-61966198D01*
X177711198Y-61804300D01*
X177842523Y-61616749D01*
X177939284Y-61409243D01*
X177970225Y-61293768D01*
X178006588Y-61234110D01*
X178069435Y-61203580D01*
X178138811Y-61211874D01*
X178192689Y-61256359D01*
X178209774Y-61293769D01*
X178240714Y-61409237D01*
X178240718Y-61409249D01*
X178285053Y-61504325D01*
X178337477Y-61616749D01*
X178468802Y-61804300D01*
X178630700Y-61966198D01*
X178818251Y-62097523D01*
X178873445Y-62123260D01*
X179025750Y-62194281D01*
X179025752Y-62194281D01*
X179025757Y-62194284D01*
X179246913Y-62253543D01*
X179409832Y-62267796D01*
X179474998Y-62273498D01*
X179475000Y-62273498D01*
X179475002Y-62273498D01*
X179532139Y-62268499D01*
X179703087Y-62253543D01*
X179924243Y-62194284D01*
X180131749Y-62097523D01*
X180319300Y-61966198D01*
X180481198Y-61804300D01*
X180612523Y-61616749D01*
X180700117Y-61428900D01*
X180746290Y-61376460D01*
X180813483Y-61357308D01*
X180880365Y-61377524D01*
X180925699Y-61430689D01*
X180936500Y-61481304D01*
X180936500Y-61808654D01*
X180943011Y-61869202D01*
X180943011Y-61869204D01*
X180979189Y-61966198D01*
X180994111Y-62006204D01*
X181081739Y-62123261D01*
X181198796Y-62210889D01*
X181335799Y-62261989D01*
X181363050Y-62264918D01*
X181396345Y-62268499D01*
X181396362Y-62268500D01*
X183093638Y-62268500D01*
X183093654Y-62268499D01*
X183120692Y-62265591D01*
X183154201Y-62261989D01*
X183291204Y-62210889D01*
X183408261Y-62123261D01*
X183495889Y-62006204D01*
X183546989Y-61869201D01*
X183552897Y-61814250D01*
X183553499Y-61808654D01*
X183553500Y-61808637D01*
X183553500Y-60111362D01*
X183553499Y-60111345D01*
X183550157Y-60080270D01*
X183546989Y-60050799D01*
X183495889Y-59913796D01*
X183408261Y-59796739D01*
X183291204Y-59709111D01*
X183154203Y-59658011D01*
X183093654Y-59651500D01*
X183093638Y-59651500D01*
X181396362Y-59651500D01*
X181396345Y-59651500D01*
X181335797Y-59658011D01*
X181335795Y-59658011D01*
X181198795Y-59709111D01*
X181081739Y-59796739D01*
X180994111Y-59913795D01*
X180943011Y-60050795D01*
X180943011Y-60050797D01*
X180936500Y-60111345D01*
X180936500Y-60438695D01*
X180916815Y-60505734D01*
X180864011Y-60551489D01*
X180794853Y-60561433D01*
X180731297Y-60532408D01*
X180700118Y-60491100D01*
X180612523Y-60303251D01*
X180612522Y-60303250D01*
X180481198Y-60115700D01*
X180319300Y-59953802D01*
X180131749Y-59822477D01*
X180131745Y-59822475D01*
X179924249Y-59725718D01*
X179924238Y-59725714D01*
X179703089Y-59666457D01*
X179703081Y-59666456D01*
X179475002Y-59646502D01*
X179474998Y-59646502D01*
X179246918Y-59666456D01*
X179246910Y-59666457D01*
X179025761Y-59725714D01*
X179025750Y-59725718D01*
X178818254Y-59822475D01*
X178818252Y-59822476D01*
X178818249Y-59822477D01*
X178818251Y-59822477D01*
X178630700Y-59953802D01*
X178630698Y-59953803D01*
X178630695Y-59953806D01*
X178468806Y-60115695D01*
X178468803Y-60115698D01*
X178468802Y-60115700D01*
X178434228Y-60165077D01*
X178337476Y-60303252D01*
X178337475Y-60303254D01*
X178240718Y-60510750D01*
X178240714Y-60510762D01*
X178209774Y-60626230D01*
X178173408Y-60685891D01*
X178110561Y-60716419D01*
X178041185Y-60708124D01*
X177987308Y-60663638D01*
X177970226Y-60626233D01*
X177939284Y-60510757D01*
X177842523Y-60303251D01*
X177711198Y-60115700D01*
X177549300Y-59953802D01*
X177361749Y-59822477D01*
X177361745Y-59822475D01*
X177154249Y-59725718D01*
X177154238Y-59725714D01*
X176933089Y-59666457D01*
X176933081Y-59666456D01*
X176705002Y-59646502D01*
X176704998Y-59646502D01*
X176476918Y-59666456D01*
X176476910Y-59666457D01*
X176255761Y-59725714D01*
X176255750Y-59725718D01*
X176048254Y-59822475D01*
X176048252Y-59822476D01*
X176048249Y-59822477D01*
X176048251Y-59822477D01*
X175860700Y-59953802D01*
X175860698Y-59953803D01*
X175860695Y-59953806D01*
X175698806Y-60115695D01*
X175698803Y-60115698D01*
X175698802Y-60115700D01*
X175664228Y-60165077D01*
X175567476Y-60303252D01*
X175567475Y-60303254D01*
X175470718Y-60510750D01*
X175470714Y-60510761D01*
X175439775Y-60626230D01*
X175403410Y-60685890D01*
X175340563Y-60716419D01*
X175271187Y-60708124D01*
X175217309Y-60663639D01*
X175200225Y-60626230D01*
X175169285Y-60510761D01*
X175169281Y-60510750D01*
X175072524Y-60303254D01*
X175072523Y-60303252D01*
X175072523Y-60303251D01*
X174941198Y-60115700D01*
X174779300Y-59953802D01*
X174591749Y-59822477D01*
X174591745Y-59822475D01*
X174384249Y-59725718D01*
X174384238Y-59725714D01*
X174163089Y-59666457D01*
X174163081Y-59666456D01*
X173935002Y-59646502D01*
X173934998Y-59646502D01*
X173706918Y-59666456D01*
X173706910Y-59666457D01*
X173485761Y-59725714D01*
X173485750Y-59725718D01*
X173278254Y-59822475D01*
X173278252Y-59822476D01*
X173278249Y-59822477D01*
X173278251Y-59822477D01*
X173090700Y-59953802D01*
X173090698Y-59953803D01*
X173090695Y-59953806D01*
X172928806Y-60115695D01*
X172928803Y-60115698D01*
X172928802Y-60115700D01*
X172894228Y-60165077D01*
X172797476Y-60303252D01*
X172797475Y-60303254D01*
X172700718Y-60510750D01*
X172700714Y-60510761D01*
X172669775Y-60626230D01*
X172633410Y-60685890D01*
X172570563Y-60716419D01*
X172501187Y-60708124D01*
X172447309Y-60663639D01*
X172430225Y-60626230D01*
X172399285Y-60510761D01*
X172399281Y-60510750D01*
X172302524Y-60303254D01*
X172302523Y-60303252D01*
X172302523Y-60303251D01*
X172171198Y-60115700D01*
X172009300Y-59953802D01*
X171821749Y-59822477D01*
X171821745Y-59822475D01*
X171614249Y-59725718D01*
X171614238Y-59725714D01*
X171393089Y-59666457D01*
X171393081Y-59666456D01*
X171165002Y-59646502D01*
X171164998Y-59646502D01*
X170936918Y-59666456D01*
X170936910Y-59666457D01*
X170715761Y-59725714D01*
X170715750Y-59725718D01*
X170508254Y-59822475D01*
X170508252Y-59822476D01*
X170508249Y-59822477D01*
X170508251Y-59822477D01*
X170320700Y-59953802D01*
X170320698Y-59953803D01*
X170320695Y-59953806D01*
X170158806Y-60115695D01*
X170158803Y-60115698D01*
X170158802Y-60115700D01*
X170124228Y-60165077D01*
X170027476Y-60303252D01*
X170027475Y-60303254D01*
X169930718Y-60510750D01*
X169930714Y-60510761D01*
X169871457Y-60731910D01*
X169871456Y-60731918D01*
X169851502Y-60959998D01*
X169851502Y-60960001D01*
X166274843Y-60960001D01*
X166407562Y-60750869D01*
X166541956Y-60465266D01*
X166639495Y-60165072D01*
X166698641Y-59855020D01*
X166700689Y-59822477D01*
X166718460Y-59540005D01*
X186691540Y-59540005D01*
X186711357Y-59855012D01*
X186711359Y-59855020D01*
X186770505Y-60165072D01*
X186770507Y-60165077D01*
X186868044Y-60465267D01*
X186868046Y-60465272D01*
X187002436Y-60750865D01*
X187002442Y-60750876D01*
X187171561Y-61017365D01*
X187171563Y-61017368D01*
X187171568Y-61017375D01*
X187369273Y-61256359D01*
X187372772Y-61260588D01*
X187602858Y-61476652D01*
X187602868Y-61476660D01*
X187858209Y-61662176D01*
X187858214Y-61662178D01*
X187858221Y-61662184D01*
X188134821Y-61814247D01*
X188134826Y-61814249D01*
X188134828Y-61814250D01*
X188134829Y-61814251D01*
X188428294Y-61930442D01*
X188428297Y-61930443D01*
X188567555Y-61966198D01*
X188734025Y-62008940D01*
X188799717Y-62017238D01*
X189047167Y-62048499D01*
X189047176Y-62048499D01*
X189047179Y-62048500D01*
X189047181Y-62048500D01*
X189362819Y-62048500D01*
X189362821Y-62048500D01*
X189362824Y-62048499D01*
X189362832Y-62048499D01*
X189549692Y-62024892D01*
X189675975Y-62008940D01*
X189981702Y-61930443D01*
X189981705Y-61930442D01*
X190275170Y-61814251D01*
X190275171Y-61814250D01*
X190275169Y-61814250D01*
X190275179Y-61814247D01*
X190551779Y-61662184D01*
X190807140Y-61476654D01*
X190978257Y-61315963D01*
X191037227Y-61260588D01*
X191037228Y-61260586D01*
X191037233Y-61260582D01*
X191238432Y-61017375D01*
X191407562Y-60750869D01*
X191541956Y-60465266D01*
X191639495Y-60165072D01*
X191698641Y-59855020D01*
X191700689Y-59822477D01*
X191718460Y-59540005D01*
X191718460Y-59539994D01*
X191698642Y-59224987D01*
X191698641Y-59224980D01*
X191639495Y-58914928D01*
X191541956Y-58614734D01*
X191520552Y-58569249D01*
X191466212Y-58453770D01*
X191407562Y-58329131D01*
X191353946Y-58244646D01*
X191238438Y-58062634D01*
X191238436Y-58062632D01*
X191238432Y-58062625D01*
X191037233Y-57819418D01*
X191037232Y-57819417D01*
X191037227Y-57819411D01*
X190807141Y-57603347D01*
X190807131Y-57603339D01*
X190551790Y-57417823D01*
X190551783Y-57417818D01*
X190551779Y-57417816D01*
X190275179Y-57265753D01*
X190275176Y-57265751D01*
X190275171Y-57265749D01*
X190275170Y-57265748D01*
X189981705Y-57149557D01*
X189981702Y-57149556D01*
X189675978Y-57071060D01*
X189675965Y-57071058D01*
X189362832Y-57031500D01*
X189362821Y-57031500D01*
X189047179Y-57031500D01*
X189047167Y-57031500D01*
X188734034Y-57071058D01*
X188734021Y-57071060D01*
X188428297Y-57149556D01*
X188428294Y-57149557D01*
X188134829Y-57265748D01*
X188134828Y-57265749D01*
X187858221Y-57417816D01*
X187858209Y-57417823D01*
X187602868Y-57603339D01*
X187602858Y-57603347D01*
X187372772Y-57819411D01*
X187281544Y-57929687D01*
X187208235Y-58018303D01*
X187171561Y-58062634D01*
X187002442Y-58329123D01*
X187002436Y-58329134D01*
X186868046Y-58614727D01*
X186868044Y-58614732D01*
X186815402Y-58776749D01*
X186770505Y-58914928D01*
X186755614Y-58992989D01*
X186711357Y-59224987D01*
X186691540Y-59539994D01*
X186691540Y-59540005D01*
X166718460Y-59540005D01*
X166718460Y-59539994D01*
X166698642Y-59224987D01*
X166698641Y-59224980D01*
X166639495Y-58914928D01*
X166541956Y-58614734D01*
X166520552Y-58569249D01*
X166466212Y-58453770D01*
X166407562Y-58329131D01*
X166353946Y-58244646D01*
X166274844Y-58120001D01*
X171236502Y-58120001D01*
X171256456Y-58348081D01*
X171256457Y-58348089D01*
X171315714Y-58569238D01*
X171315718Y-58569249D01*
X171379818Y-58706712D01*
X171412477Y-58776749D01*
X171543802Y-58964300D01*
X171705700Y-59126198D01*
X171893251Y-59257523D01*
X172018091Y-59315736D01*
X172100750Y-59354281D01*
X172100752Y-59354281D01*
X172100757Y-59354284D01*
X172321913Y-59413543D01*
X172484832Y-59427796D01*
X172549998Y-59433498D01*
X172550000Y-59433498D01*
X172550002Y-59433498D01*
X172607021Y-59428509D01*
X172778087Y-59413543D01*
X172999243Y-59354284D01*
X173206749Y-59257523D01*
X173394300Y-59126198D01*
X173556198Y-58964300D01*
X173687523Y-58776749D01*
X173784284Y-58569243D01*
X173815225Y-58453769D01*
X173851590Y-58394109D01*
X173914437Y-58363580D01*
X173983812Y-58371875D01*
X174037690Y-58416360D01*
X174054775Y-58453770D01*
X174085713Y-58569235D01*
X174085718Y-58569249D01*
X174149818Y-58706712D01*
X174182477Y-58776749D01*
X174313802Y-58964300D01*
X174475700Y-59126198D01*
X174663251Y-59257523D01*
X174788091Y-59315736D01*
X174870750Y-59354281D01*
X174870752Y-59354281D01*
X174870757Y-59354284D01*
X175091913Y-59413543D01*
X175254832Y-59427796D01*
X175319998Y-59433498D01*
X175320000Y-59433498D01*
X175320002Y-59433498D01*
X175377021Y-59428509D01*
X175548087Y-59413543D01*
X175769243Y-59354284D01*
X175976749Y-59257523D01*
X176164300Y-59126198D01*
X176326198Y-58964300D01*
X176457523Y-58776749D01*
X176554284Y-58569243D01*
X176585225Y-58453769D01*
X176621590Y-58394109D01*
X176684437Y-58363580D01*
X176753812Y-58371875D01*
X176807690Y-58416360D01*
X176824775Y-58453770D01*
X176855713Y-58569235D01*
X176855718Y-58569249D01*
X176919818Y-58706712D01*
X176952477Y-58776749D01*
X177083802Y-58964300D01*
X177245700Y-59126198D01*
X177433251Y-59257523D01*
X177558091Y-59315736D01*
X177640750Y-59354281D01*
X177640752Y-59354281D01*
X177640757Y-59354284D01*
X177861913Y-59413543D01*
X178024832Y-59427796D01*
X178089998Y-59433498D01*
X178090000Y-59433498D01*
X178090002Y-59433498D01*
X178147021Y-59428509D01*
X178318087Y-59413543D01*
X178539243Y-59354284D01*
X178746749Y-59257523D01*
X178934300Y-59126198D01*
X179096198Y-58964300D01*
X179227523Y-58776749D01*
X179324284Y-58569243D01*
X179355225Y-58453769D01*
X179391590Y-58394109D01*
X179454437Y-58363580D01*
X179523812Y-58371875D01*
X179577690Y-58416360D01*
X179594775Y-58453770D01*
X179625713Y-58569235D01*
X179625718Y-58569249D01*
X179689818Y-58706712D01*
X179722477Y-58776749D01*
X179853802Y-58964300D01*
X180015700Y-59126198D01*
X180203251Y-59257523D01*
X180328091Y-59315736D01*
X180410750Y-59354281D01*
X180410752Y-59354281D01*
X180410757Y-59354284D01*
X180631913Y-59413543D01*
X180794832Y-59427796D01*
X180859998Y-59433498D01*
X180860000Y-59433498D01*
X180860002Y-59433498D01*
X180917021Y-59428509D01*
X181088087Y-59413543D01*
X181309243Y-59354284D01*
X181516749Y-59257523D01*
X181704300Y-59126198D01*
X181866198Y-58964300D01*
X181997523Y-58776749D01*
X182094284Y-58569243D01*
X182153543Y-58348087D01*
X182173498Y-58120000D01*
X182153543Y-57891913D01*
X182094284Y-57670757D01*
X182075062Y-57629536D01*
X181997524Y-57463254D01*
X181997523Y-57463252D01*
X181997523Y-57463251D01*
X181866198Y-57275700D01*
X181704300Y-57113802D01*
X181516749Y-56982477D01*
X181516745Y-56982475D01*
X181309249Y-56885718D01*
X181309238Y-56885714D01*
X181088089Y-56826457D01*
X181088081Y-56826456D01*
X180860002Y-56806502D01*
X180859998Y-56806502D01*
X180631918Y-56826456D01*
X180631910Y-56826457D01*
X180410761Y-56885714D01*
X180410750Y-56885718D01*
X180203254Y-56982475D01*
X180203252Y-56982476D01*
X180203249Y-56982477D01*
X180203251Y-56982477D01*
X180015700Y-57113802D01*
X180015698Y-57113803D01*
X180015695Y-57113806D01*
X179853806Y-57275695D01*
X179722476Y-57463252D01*
X179722475Y-57463254D01*
X179625718Y-57670750D01*
X179625714Y-57670761D01*
X179594775Y-57786230D01*
X179558410Y-57845890D01*
X179495563Y-57876419D01*
X179426187Y-57868124D01*
X179372309Y-57823639D01*
X179355225Y-57786230D01*
X179325930Y-57676902D01*
X179324284Y-57670757D01*
X179305062Y-57629536D01*
X179227524Y-57463254D01*
X179227523Y-57463252D01*
X179227523Y-57463251D01*
X179096198Y-57275700D01*
X178934300Y-57113802D01*
X178746749Y-56982477D01*
X178746745Y-56982475D01*
X178539249Y-56885718D01*
X178539238Y-56885714D01*
X178318089Y-56826457D01*
X178318081Y-56826456D01*
X178090002Y-56806502D01*
X178089998Y-56806502D01*
X177861918Y-56826456D01*
X177861910Y-56826457D01*
X177640761Y-56885714D01*
X177640750Y-56885718D01*
X177433254Y-56982475D01*
X177433252Y-56982476D01*
X177433249Y-56982477D01*
X177433251Y-56982477D01*
X177245700Y-57113802D01*
X177245698Y-57113803D01*
X177245695Y-57113806D01*
X177083806Y-57275695D01*
X176952476Y-57463252D01*
X176952475Y-57463254D01*
X176855718Y-57670750D01*
X176855714Y-57670761D01*
X176824775Y-57786230D01*
X176788410Y-57845890D01*
X176725563Y-57876419D01*
X176656187Y-57868124D01*
X176602309Y-57823639D01*
X176585225Y-57786230D01*
X176555930Y-57676902D01*
X176554284Y-57670757D01*
X176535062Y-57629536D01*
X176457524Y-57463254D01*
X176457523Y-57463252D01*
X176457523Y-57463251D01*
X176326198Y-57275700D01*
X176164300Y-57113802D01*
X175976749Y-56982477D01*
X175976745Y-56982475D01*
X175769249Y-56885718D01*
X175769238Y-56885714D01*
X175548089Y-56826457D01*
X175548081Y-56826456D01*
X175320002Y-56806502D01*
X175319998Y-56806502D01*
X175091918Y-56826456D01*
X175091910Y-56826457D01*
X174870761Y-56885714D01*
X174870750Y-56885718D01*
X174663254Y-56982475D01*
X174663252Y-56982476D01*
X174663249Y-56982477D01*
X174663251Y-56982477D01*
X174475700Y-57113802D01*
X174475698Y-57113803D01*
X174475695Y-57113806D01*
X174313806Y-57275695D01*
X174182476Y-57463252D01*
X174182475Y-57463254D01*
X174085718Y-57670750D01*
X174085714Y-57670761D01*
X174054775Y-57786230D01*
X174018410Y-57845890D01*
X173955563Y-57876419D01*
X173886187Y-57868124D01*
X173832309Y-57823639D01*
X173815225Y-57786230D01*
X173785930Y-57676902D01*
X173784284Y-57670757D01*
X173765062Y-57629536D01*
X173687524Y-57463254D01*
X173687523Y-57463252D01*
X173687523Y-57463251D01*
X173556198Y-57275700D01*
X173394300Y-57113802D01*
X173206749Y-56982477D01*
X173206745Y-56982475D01*
X172999249Y-56885718D01*
X172999238Y-56885714D01*
X172778089Y-56826457D01*
X172778081Y-56826456D01*
X172550002Y-56806502D01*
X172549998Y-56806502D01*
X172321918Y-56826456D01*
X172321910Y-56826457D01*
X172100761Y-56885714D01*
X172100750Y-56885718D01*
X171893254Y-56982475D01*
X171893252Y-56982476D01*
X171893249Y-56982477D01*
X171893251Y-56982477D01*
X171705700Y-57113802D01*
X171705698Y-57113803D01*
X171705695Y-57113806D01*
X171543806Y-57275695D01*
X171412476Y-57463252D01*
X171412475Y-57463254D01*
X171315718Y-57670750D01*
X171315714Y-57670761D01*
X171256457Y-57891910D01*
X171256456Y-57891918D01*
X171236502Y-58119998D01*
X171236502Y-58120001D01*
X166274844Y-58120001D01*
X166238438Y-58062634D01*
X166238436Y-58062632D01*
X166238432Y-58062625D01*
X166037233Y-57819418D01*
X166037232Y-57819417D01*
X166037227Y-57819411D01*
X165807141Y-57603347D01*
X165807131Y-57603339D01*
X165551790Y-57417823D01*
X165551783Y-57417818D01*
X165551779Y-57417816D01*
X165275179Y-57265753D01*
X165275176Y-57265751D01*
X165275171Y-57265749D01*
X165275170Y-57265748D01*
X164981705Y-57149557D01*
X164981702Y-57149556D01*
X164675978Y-57071060D01*
X164675965Y-57071058D01*
X164362832Y-57031500D01*
X164362821Y-57031500D01*
X164047179Y-57031500D01*
X164047167Y-57031500D01*
X163734034Y-57071058D01*
X163734021Y-57071060D01*
X163428297Y-57149556D01*
X163428294Y-57149557D01*
X163134829Y-57265748D01*
X163134828Y-57265749D01*
X162858221Y-57417816D01*
X162858209Y-57417823D01*
X162602868Y-57603339D01*
X162602858Y-57603347D01*
X162372772Y-57819411D01*
X162281544Y-57929687D01*
X162208235Y-58018303D01*
X162171561Y-58062634D01*
X162002442Y-58329123D01*
X162002436Y-58329134D01*
X161868046Y-58614727D01*
X161868044Y-58614732D01*
X161815402Y-58776749D01*
X161770505Y-58914928D01*
X161755614Y-58992989D01*
X161711357Y-59224987D01*
X161691540Y-59539994D01*
X161691540Y-59540005D01*
X151713460Y-59540005D01*
X151713460Y-59539994D01*
X151693642Y-59224987D01*
X151693641Y-59224980D01*
X151634495Y-58914928D01*
X151536956Y-58614734D01*
X151515552Y-58569249D01*
X151461212Y-58453770D01*
X151402562Y-58329131D01*
X151348946Y-58244646D01*
X151233438Y-58062634D01*
X151233436Y-58062632D01*
X151233432Y-58062625D01*
X151032233Y-57819418D01*
X151032232Y-57819417D01*
X151032227Y-57819411D01*
X150802141Y-57603347D01*
X150802131Y-57603339D01*
X150546790Y-57417823D01*
X150546783Y-57417818D01*
X150546779Y-57417816D01*
X150270179Y-57265753D01*
X150270176Y-57265751D01*
X150270171Y-57265749D01*
X150270170Y-57265748D01*
X149976705Y-57149557D01*
X149976702Y-57149556D01*
X149670978Y-57071060D01*
X149670965Y-57071058D01*
X149357832Y-57031500D01*
X149357821Y-57031500D01*
X149042179Y-57031500D01*
X149042167Y-57031500D01*
X148729034Y-57071058D01*
X148729021Y-57071060D01*
X148423297Y-57149556D01*
X148423294Y-57149557D01*
X148129829Y-57265748D01*
X148129828Y-57265749D01*
X147853221Y-57417816D01*
X147853209Y-57417823D01*
X147597868Y-57603339D01*
X147597858Y-57603347D01*
X147367772Y-57819411D01*
X147276544Y-57929687D01*
X147203235Y-58018303D01*
X147166561Y-58062634D01*
X146997442Y-58329123D01*
X146997436Y-58329134D01*
X146863046Y-58614727D01*
X146863044Y-58614732D01*
X146810402Y-58776749D01*
X146765505Y-58914928D01*
X146750614Y-58992989D01*
X146706357Y-59224987D01*
X146686540Y-59539994D01*
X146686540Y-59540005D01*
X126713460Y-59540005D01*
X126713460Y-59539994D01*
X126693642Y-59224987D01*
X126693641Y-59224980D01*
X126634495Y-58914928D01*
X126536956Y-58614734D01*
X126515552Y-58569249D01*
X126461212Y-58453770D01*
X126402562Y-58329131D01*
X126348946Y-58244646D01*
X126269844Y-58120001D01*
X131231502Y-58120001D01*
X131251456Y-58348081D01*
X131251457Y-58348089D01*
X131310714Y-58569238D01*
X131310718Y-58569249D01*
X131374818Y-58706712D01*
X131407477Y-58776749D01*
X131538802Y-58964300D01*
X131700700Y-59126198D01*
X131888251Y-59257523D01*
X132013091Y-59315736D01*
X132095750Y-59354281D01*
X132095752Y-59354281D01*
X132095757Y-59354284D01*
X132316913Y-59413543D01*
X132479832Y-59427796D01*
X132544998Y-59433498D01*
X132545000Y-59433498D01*
X132545002Y-59433498D01*
X132602021Y-59428509D01*
X132773087Y-59413543D01*
X132994243Y-59354284D01*
X133201749Y-59257523D01*
X133389300Y-59126198D01*
X133551198Y-58964300D01*
X133682523Y-58776749D01*
X133779284Y-58569243D01*
X133810225Y-58453769D01*
X133846590Y-58394109D01*
X133909437Y-58363580D01*
X133978812Y-58371875D01*
X134032690Y-58416360D01*
X134049775Y-58453770D01*
X134080713Y-58569235D01*
X134080718Y-58569249D01*
X134144818Y-58706712D01*
X134177477Y-58776749D01*
X134308802Y-58964300D01*
X134470700Y-59126198D01*
X134658251Y-59257523D01*
X134783091Y-59315736D01*
X134865750Y-59354281D01*
X134865752Y-59354281D01*
X134865757Y-59354284D01*
X135086913Y-59413543D01*
X135249832Y-59427796D01*
X135314998Y-59433498D01*
X135315000Y-59433498D01*
X135315002Y-59433498D01*
X135372021Y-59428509D01*
X135543087Y-59413543D01*
X135764243Y-59354284D01*
X135971749Y-59257523D01*
X136159300Y-59126198D01*
X136321198Y-58964300D01*
X136452523Y-58776749D01*
X136549284Y-58569243D01*
X136580225Y-58453769D01*
X136616590Y-58394109D01*
X136679437Y-58363580D01*
X136748812Y-58371875D01*
X136802690Y-58416360D01*
X136819775Y-58453770D01*
X136850713Y-58569235D01*
X136850718Y-58569249D01*
X136914818Y-58706712D01*
X136947477Y-58776749D01*
X137078802Y-58964300D01*
X137240700Y-59126198D01*
X137428251Y-59257523D01*
X137553091Y-59315736D01*
X137635750Y-59354281D01*
X137635752Y-59354281D01*
X137635757Y-59354284D01*
X137856913Y-59413543D01*
X138019832Y-59427796D01*
X138084998Y-59433498D01*
X138085000Y-59433498D01*
X138085002Y-59433498D01*
X138142021Y-59428509D01*
X138313087Y-59413543D01*
X138534243Y-59354284D01*
X138741749Y-59257523D01*
X138929300Y-59126198D01*
X139091198Y-58964300D01*
X139222523Y-58776749D01*
X139319284Y-58569243D01*
X139350225Y-58453769D01*
X139386590Y-58394109D01*
X139449437Y-58363580D01*
X139518812Y-58371875D01*
X139572690Y-58416360D01*
X139589775Y-58453770D01*
X139620713Y-58569235D01*
X139620718Y-58569249D01*
X139684818Y-58706712D01*
X139717477Y-58776749D01*
X139848802Y-58964300D01*
X140010700Y-59126198D01*
X140198251Y-59257523D01*
X140323091Y-59315736D01*
X140405750Y-59354281D01*
X140405752Y-59354281D01*
X140405757Y-59354284D01*
X140626913Y-59413543D01*
X140789832Y-59427796D01*
X140854998Y-59433498D01*
X140855000Y-59433498D01*
X140855002Y-59433498D01*
X140912021Y-59428509D01*
X141083087Y-59413543D01*
X141304243Y-59354284D01*
X141511749Y-59257523D01*
X141699300Y-59126198D01*
X141861198Y-58964300D01*
X141992523Y-58776749D01*
X142089284Y-58569243D01*
X142148543Y-58348087D01*
X142168498Y-58120000D01*
X142148543Y-57891913D01*
X142089284Y-57670757D01*
X142070062Y-57629536D01*
X141992524Y-57463254D01*
X141992523Y-57463252D01*
X141992523Y-57463251D01*
X141861198Y-57275700D01*
X141699300Y-57113802D01*
X141511749Y-56982477D01*
X141511745Y-56982475D01*
X141304249Y-56885718D01*
X141304238Y-56885714D01*
X141083089Y-56826457D01*
X141083081Y-56826456D01*
X140855002Y-56806502D01*
X140854998Y-56806502D01*
X140626918Y-56826456D01*
X140626910Y-56826457D01*
X140405761Y-56885714D01*
X140405750Y-56885718D01*
X140198254Y-56982475D01*
X140198252Y-56982476D01*
X140198249Y-56982477D01*
X140198251Y-56982477D01*
X140010700Y-57113802D01*
X140010698Y-57113803D01*
X140010695Y-57113806D01*
X139848806Y-57275695D01*
X139717476Y-57463252D01*
X139717475Y-57463254D01*
X139620718Y-57670750D01*
X139620714Y-57670761D01*
X139589775Y-57786230D01*
X139553410Y-57845890D01*
X139490563Y-57876419D01*
X139421187Y-57868124D01*
X139367309Y-57823639D01*
X139350225Y-57786230D01*
X139320930Y-57676902D01*
X139319284Y-57670757D01*
X139300062Y-57629536D01*
X139222524Y-57463254D01*
X139222523Y-57463252D01*
X139222523Y-57463251D01*
X139091198Y-57275700D01*
X138929300Y-57113802D01*
X138741749Y-56982477D01*
X138741745Y-56982475D01*
X138534249Y-56885718D01*
X138534238Y-56885714D01*
X138313089Y-56826457D01*
X138313081Y-56826456D01*
X138085002Y-56806502D01*
X138084998Y-56806502D01*
X137856918Y-56826456D01*
X137856910Y-56826457D01*
X137635761Y-56885714D01*
X137635750Y-56885718D01*
X137428254Y-56982475D01*
X137428252Y-56982476D01*
X137428249Y-56982477D01*
X137428251Y-56982477D01*
X137240700Y-57113802D01*
X137240698Y-57113803D01*
X137240695Y-57113806D01*
X137078806Y-57275695D01*
X136947476Y-57463252D01*
X136947475Y-57463254D01*
X136850718Y-57670750D01*
X136850714Y-57670761D01*
X136819775Y-57786230D01*
X136783410Y-57845890D01*
X136720563Y-57876419D01*
X136651187Y-57868124D01*
X136597309Y-57823639D01*
X136580225Y-57786230D01*
X136550930Y-57676902D01*
X136549284Y-57670757D01*
X136530062Y-57629536D01*
X136452524Y-57463254D01*
X136452523Y-57463252D01*
X136452523Y-57463251D01*
X136321198Y-57275700D01*
X136159300Y-57113802D01*
X135971749Y-56982477D01*
X135971745Y-56982475D01*
X135764249Y-56885718D01*
X135764238Y-56885714D01*
X135543089Y-56826457D01*
X135543081Y-56826456D01*
X135315002Y-56806502D01*
X135314998Y-56806502D01*
X135086918Y-56826456D01*
X135086910Y-56826457D01*
X134865761Y-56885714D01*
X134865750Y-56885718D01*
X134658254Y-56982475D01*
X134658252Y-56982476D01*
X134658249Y-56982477D01*
X134658251Y-56982477D01*
X134470700Y-57113802D01*
X134470698Y-57113803D01*
X134470695Y-57113806D01*
X134308806Y-57275695D01*
X134177476Y-57463252D01*
X134177475Y-57463254D01*
X134080718Y-57670750D01*
X134080714Y-57670761D01*
X134049775Y-57786230D01*
X134013410Y-57845890D01*
X133950563Y-57876419D01*
X133881187Y-57868124D01*
X133827309Y-57823639D01*
X133810225Y-57786230D01*
X133780930Y-57676902D01*
X133779284Y-57670757D01*
X133760062Y-57629536D01*
X133682524Y-57463254D01*
X133682523Y-57463252D01*
X133682523Y-57463251D01*
X133551198Y-57275700D01*
X133389300Y-57113802D01*
X133201749Y-56982477D01*
X133201745Y-56982475D01*
X132994249Y-56885718D01*
X132994238Y-56885714D01*
X132773089Y-56826457D01*
X132773081Y-56826456D01*
X132545002Y-56806502D01*
X132544998Y-56806502D01*
X132316918Y-56826456D01*
X132316910Y-56826457D01*
X132095761Y-56885714D01*
X132095750Y-56885718D01*
X131888254Y-56982475D01*
X131888252Y-56982476D01*
X131888249Y-56982477D01*
X131888251Y-56982477D01*
X131700700Y-57113802D01*
X131700698Y-57113803D01*
X131700695Y-57113806D01*
X131538806Y-57275695D01*
X131407476Y-57463252D01*
X131407475Y-57463254D01*
X131310718Y-57670750D01*
X131310714Y-57670761D01*
X131251457Y-57891910D01*
X131251456Y-57891918D01*
X131231502Y-58119998D01*
X131231502Y-58120001D01*
X126269844Y-58120001D01*
X126233438Y-58062634D01*
X126233436Y-58062632D01*
X126233432Y-58062625D01*
X126032233Y-57819418D01*
X126032232Y-57819417D01*
X126032227Y-57819411D01*
X125802141Y-57603347D01*
X125802131Y-57603339D01*
X125546790Y-57417823D01*
X125546783Y-57417818D01*
X125546779Y-57417816D01*
X125270179Y-57265753D01*
X125270176Y-57265751D01*
X125270171Y-57265749D01*
X125270170Y-57265748D01*
X124976705Y-57149557D01*
X124976702Y-57149556D01*
X124670978Y-57071060D01*
X124670965Y-57071058D01*
X124357832Y-57031500D01*
X124357821Y-57031500D01*
X124042179Y-57031500D01*
X124042167Y-57031500D01*
X123729034Y-57071058D01*
X123729021Y-57071060D01*
X123423297Y-57149556D01*
X123423294Y-57149557D01*
X123129829Y-57265748D01*
X123129828Y-57265749D01*
X122853221Y-57417816D01*
X122853209Y-57417823D01*
X122597868Y-57603339D01*
X122597858Y-57603347D01*
X122367772Y-57819411D01*
X122276544Y-57929687D01*
X122203235Y-58018303D01*
X122166561Y-58062634D01*
X121997442Y-58329123D01*
X121997436Y-58329134D01*
X121863046Y-58614727D01*
X121863044Y-58614732D01*
X121810402Y-58776749D01*
X121765505Y-58914928D01*
X121750614Y-58992989D01*
X121706357Y-59224987D01*
X121686540Y-59539994D01*
X121686540Y-59540005D01*
X120515500Y-59540005D01*
X120515500Y-50789500D01*
X120535185Y-50722461D01*
X120587989Y-50676706D01*
X120639500Y-50665500D01*
X198084201Y-50665500D01*
X198536900Y-50665500D01*
X198603939Y-50685185D01*
G37*
G04 #@! TD.AperFunction*
M02*
