M48
; DRILL file {KiCad 7.0.6} date Mon Aug  7 22:51:57 2023
; FORMAT={-:-/ absolute / metric / decimal}
; #@! TF.CreationDate,2023-08-07T22:51:57+02:00
; #@! TF.GenerationSoftware,Kicad,Pcbnew,7.0.6
; #@! TF.FileFunction,Plated,1,2,PTH
FMAT,2
METRIC
; #@! TA.AperFunction,Plated,PTH,ComponentDrill
T1C1.000
; #@! TA.AperFunction,Plated,PTH,ComponentDrill
T2C1.300
; #@! TA.AperFunction,Plated,PTH,ComponentDrill
T3C2.000
; #@! TA.AperFunction,Plated,PTH,ComponentDrill
T4C3.200
%
G90
G05
T1
X131.16Y-60.96
X132.545Y-58.12
X133.93Y-60.96
X135.315Y-58.12
X136.7Y-60.96
X138.085Y-58.12
X139.47Y-60.96
X140.855Y-58.12
X142.24Y-60.96
X144.78Y-99.06
X144.78Y-101.56
X171.165Y-60.96
X172.55Y-58.12
X173.935Y-60.96
X175.32Y-58.12
X176.705Y-60.96
X178.09Y-58.12
X179.475Y-60.96
X180.86Y-58.12
X182.245Y-60.96
T2
X151.13Y-100.965
X156.21Y-100.965
X162.56Y-100.965
X167.64Y-100.965
X173.99Y-100.965
X179.07Y-100.965
X185.42Y-100.965
X190.5Y-100.965
X195.58Y-100.965
T3
X189.484Y-71.12
X189.484Y-85.09
X204.984Y-71.12
X204.984Y-85.09
T4
X124.2Y-59.54
X149.2Y-59.54
X164.205Y-59.54
X189.205Y-59.54
T0
M30
