G04 #@! TF.GenerationSoftware,KiCad,Pcbnew,7.0.6*
G04 #@! TF.CreationDate,2023-08-07T22:51:51+02:00*
G04 #@! TF.ProjectId,Box,426f782e-6b69-4636-9164-5f7063625858,rev?*
G04 #@! TF.SameCoordinates,Original*
G04 #@! TF.FileFunction,Legend,Top*
G04 #@! TF.FilePolarity,Positive*
%FSLAX46Y46*%
G04 Gerber Fmt 4.6, Leading zero omitted, Abs format (unit mm)*
G04 Created by KiCad (PCBNEW 7.0.6) date 2023-08-07 22:51:51*
%MOMM*%
%LPD*%
G01*
G04 APERTURE LIST*
G04 Aperture macros list*
%AMRoundRect*
0 Rectangle with rounded corners*
0 $1 Rounding radius*
0 $2 $3 $4 $5 $6 $7 $8 $9 X,Y pos of 4 corners*
0 Add a 4 corners polygon primitive as box body*
4,1,4,$2,$3,$4,$5,$6,$7,$8,$9,$2,$3,0*
0 Add four circle primitives for the rounded corners*
1,1,$1+$1,$2,$3*
1,1,$1+$1,$4,$5*
1,1,$1+$1,$6,$7*
1,1,$1+$1,$8,$9*
0 Add four rect primitives between the rounded corners*
20,1,$1+$1,$2,$3,$4,$5,0*
20,1,$1+$1,$4,$5,$6,$7,0*
20,1,$1+$1,$6,$7,$8,$9,0*
20,1,$1+$1,$8,$9,$2,$3,0*%
G04 Aperture macros list end*
%ADD10C,0.150000*%
%ADD11C,0.120000*%
%ADD12C,0.200000*%
%ADD13C,4.000000*%
%ADD14C,3.200000*%
%ADD15R,2.600000X2.600000*%
%ADD16C,2.600000*%
%ADD17R,1.600000X1.600000*%
%ADD18C,1.600000*%
%ADD19RoundRect,0.250000X0.750000X-0.600000X0.750000X0.600000X-0.750000X0.600000X-0.750000X-0.600000X0*%
%ADD20O,2.000000X1.700000*%
G04 APERTURE END LIST*
D10*
X168094819Y-94480000D02*
X168094819Y-95051428D01*
X168094819Y-94765714D02*
X167094819Y-94765714D01*
X167094819Y-94765714D02*
X167237676Y-94860952D01*
X167237676Y-94860952D02*
X167332914Y-94956190D01*
X167332914Y-94956190D02*
X167380533Y-95051428D01*
X168190057Y-94289524D02*
X168190057Y-93527619D01*
X168094819Y-92813333D02*
X168094819Y-93289523D01*
X168094819Y-93289523D02*
X167094819Y-93289523D01*
X189954819Y-94170476D02*
X189954819Y-94646666D01*
X189954819Y-94646666D02*
X190431009Y-94694285D01*
X190431009Y-94694285D02*
X190383390Y-94646666D01*
X190383390Y-94646666D02*
X190335771Y-94551428D01*
X190335771Y-94551428D02*
X190335771Y-94313333D01*
X190335771Y-94313333D02*
X190383390Y-94218095D01*
X190383390Y-94218095D02*
X190431009Y-94170476D01*
X190431009Y-94170476D02*
X190526247Y-94122857D01*
X190526247Y-94122857D02*
X190764342Y-94122857D01*
X190764342Y-94122857D02*
X190859580Y-94170476D01*
X190859580Y-94170476D02*
X190907200Y-94218095D01*
X190907200Y-94218095D02*
X190954819Y-94313333D01*
X190954819Y-94313333D02*
X190954819Y-94551428D01*
X190954819Y-94551428D02*
X190907200Y-94646666D01*
X190907200Y-94646666D02*
X190859580Y-94694285D01*
X189954819Y-93837142D02*
X190954819Y-93503809D01*
X190954819Y-93503809D02*
X189954819Y-93170476D01*
X178524819Y-94813333D02*
X178524819Y-94718095D01*
X178524819Y-94718095D02*
X178572438Y-94622857D01*
X178572438Y-94622857D02*
X178620057Y-94575238D01*
X178620057Y-94575238D02*
X178715295Y-94527619D01*
X178715295Y-94527619D02*
X178905771Y-94480000D01*
X178905771Y-94480000D02*
X179143866Y-94480000D01*
X179143866Y-94480000D02*
X179334342Y-94527619D01*
X179334342Y-94527619D02*
X179429580Y-94575238D01*
X179429580Y-94575238D02*
X179477200Y-94622857D01*
X179477200Y-94622857D02*
X179524819Y-94718095D01*
X179524819Y-94718095D02*
X179524819Y-94813333D01*
X179524819Y-94813333D02*
X179477200Y-94908571D01*
X179477200Y-94908571D02*
X179429580Y-94956190D01*
X179429580Y-94956190D02*
X179334342Y-95003809D01*
X179334342Y-95003809D02*
X179143866Y-95051428D01*
X179143866Y-95051428D02*
X178905771Y-95051428D01*
X178905771Y-95051428D02*
X178715295Y-95003809D01*
X178715295Y-95003809D02*
X178620057Y-94956190D01*
X178620057Y-94956190D02*
X178572438Y-94908571D01*
X178572438Y-94908571D02*
X178524819Y-94813333D01*
X179620057Y-94289524D02*
X179620057Y-93527619D01*
X179524819Y-92813333D02*
X179524819Y-93289523D01*
X179524819Y-93289523D02*
X178524819Y-93289523D01*
X163014819Y-94599047D02*
X163014819Y-95170475D01*
X163014819Y-94884761D02*
X162014819Y-94884761D01*
X162014819Y-94884761D02*
X162157676Y-94979999D01*
X162157676Y-94979999D02*
X162252914Y-95075237D01*
X162252914Y-95075237D02*
X162300533Y-95170475D01*
X163110057Y-94408571D02*
X163110057Y-93646666D01*
X163014819Y-93408570D02*
X162014819Y-93408570D01*
X162491009Y-93408570D02*
X162491009Y-92837142D01*
X163014819Y-92837142D02*
X162014819Y-92837142D01*
X196034819Y-94599047D02*
X196034819Y-95170475D01*
X196034819Y-94884761D02*
X195034819Y-94884761D01*
X195034819Y-94884761D02*
X195177676Y-94979999D01*
X195177676Y-94979999D02*
X195272914Y-95075237D01*
X195272914Y-95075237D02*
X195320533Y-95170475D01*
X195130057Y-94218094D02*
X195082438Y-94170475D01*
X195082438Y-94170475D02*
X195034819Y-94075237D01*
X195034819Y-94075237D02*
X195034819Y-93837142D01*
X195034819Y-93837142D02*
X195082438Y-93741904D01*
X195082438Y-93741904D02*
X195130057Y-93694285D01*
X195130057Y-93694285D02*
X195225295Y-93646666D01*
X195225295Y-93646666D02*
X195320533Y-93646666D01*
X195320533Y-93646666D02*
X195463390Y-93694285D01*
X195463390Y-93694285D02*
X196034819Y-94265713D01*
X196034819Y-94265713D02*
X196034819Y-93646666D01*
X195034819Y-93360951D02*
X196034819Y-93027618D01*
X196034819Y-93027618D02*
X195034819Y-92694285D01*
X173444819Y-94932380D02*
X173444819Y-94837142D01*
X173444819Y-94837142D02*
X173492438Y-94741904D01*
X173492438Y-94741904D02*
X173540057Y-94694285D01*
X173540057Y-94694285D02*
X173635295Y-94646666D01*
X173635295Y-94646666D02*
X173825771Y-94599047D01*
X173825771Y-94599047D02*
X174063866Y-94599047D01*
X174063866Y-94599047D02*
X174254342Y-94646666D01*
X174254342Y-94646666D02*
X174349580Y-94694285D01*
X174349580Y-94694285D02*
X174397200Y-94741904D01*
X174397200Y-94741904D02*
X174444819Y-94837142D01*
X174444819Y-94837142D02*
X174444819Y-94932380D01*
X174444819Y-94932380D02*
X174397200Y-95027618D01*
X174397200Y-95027618D02*
X174349580Y-95075237D01*
X174349580Y-95075237D02*
X174254342Y-95122856D01*
X174254342Y-95122856D02*
X174063866Y-95170475D01*
X174063866Y-95170475D02*
X173825771Y-95170475D01*
X173825771Y-95170475D02*
X173635295Y-95122856D01*
X173635295Y-95122856D02*
X173540057Y-95075237D01*
X173540057Y-95075237D02*
X173492438Y-95027618D01*
X173492438Y-95027618D02*
X173444819Y-94932380D01*
X174540057Y-94408571D02*
X174540057Y-93646666D01*
X174444819Y-93408570D02*
X173444819Y-93408570D01*
X173921009Y-93408570D02*
X173921009Y-92837142D01*
X174444819Y-92837142D02*
X173444819Y-92837142D01*
X144370588Y-94802438D02*
X144275350Y-94754819D01*
X144275350Y-94754819D02*
X144132493Y-94754819D01*
X144132493Y-94754819D02*
X143989636Y-94802438D01*
X143989636Y-94802438D02*
X143894398Y-94897676D01*
X143894398Y-94897676D02*
X143846779Y-94992914D01*
X143846779Y-94992914D02*
X143799160Y-95183390D01*
X143799160Y-95183390D02*
X143799160Y-95326247D01*
X143799160Y-95326247D02*
X143846779Y-95516723D01*
X143846779Y-95516723D02*
X143894398Y-95611961D01*
X143894398Y-95611961D02*
X143989636Y-95707200D01*
X143989636Y-95707200D02*
X144132493Y-95754819D01*
X144132493Y-95754819D02*
X144227731Y-95754819D01*
X144227731Y-95754819D02*
X144370588Y-95707200D01*
X144370588Y-95707200D02*
X144418207Y-95659580D01*
X144418207Y-95659580D02*
X144418207Y-95326247D01*
X144418207Y-95326247D02*
X144227731Y-95326247D01*
X144846779Y-95754819D02*
X144846779Y-94754819D01*
X144846779Y-94754819D02*
X145418207Y-95754819D01*
X145418207Y-95754819D02*
X145418207Y-94754819D01*
X145894398Y-95754819D02*
X145894398Y-94754819D01*
X145894398Y-94754819D02*
X146132493Y-94754819D01*
X146132493Y-94754819D02*
X146275350Y-94802438D01*
X146275350Y-94802438D02*
X146370588Y-94897676D01*
X146370588Y-94897676D02*
X146418207Y-94992914D01*
X146418207Y-94992914D02*
X146465826Y-95183390D01*
X146465826Y-95183390D02*
X146465826Y-95326247D01*
X146465826Y-95326247D02*
X146418207Y-95516723D01*
X146418207Y-95516723D02*
X146370588Y-95611961D01*
X146370588Y-95611961D02*
X146275350Y-95707200D01*
X146275350Y-95707200D02*
X146132493Y-95754819D01*
X146132493Y-95754819D02*
X145894398Y-95754819D01*
X185289819Y-71529411D02*
X185289819Y-72100839D01*
X185289819Y-71815125D02*
X184289819Y-71815125D01*
X184289819Y-71815125D02*
X184432676Y-71910363D01*
X184432676Y-71910363D02*
X184527914Y-72005601D01*
X184527914Y-72005601D02*
X184575533Y-72100839D01*
X184385057Y-71148458D02*
X184337438Y-71100839D01*
X184337438Y-71100839D02*
X184289819Y-71005601D01*
X184289819Y-71005601D02*
X184289819Y-70767506D01*
X184289819Y-70767506D02*
X184337438Y-70672268D01*
X184337438Y-70672268D02*
X184385057Y-70624649D01*
X184385057Y-70624649D02*
X184480295Y-70577030D01*
X184480295Y-70577030D02*
X184575533Y-70577030D01*
X184575533Y-70577030D02*
X184718390Y-70624649D01*
X184718390Y-70624649D02*
X185289819Y-71196077D01*
X185289819Y-71196077D02*
X185289819Y-70577030D01*
X184289819Y-70291315D02*
X185289819Y-69957982D01*
X185289819Y-69957982D02*
X184289819Y-69624649D01*
D11*
X137282144Y-72778808D02*
X137663097Y-72512141D01*
X137282144Y-72321665D02*
X138082144Y-72321665D01*
X138082144Y-72321665D02*
X138082144Y-72626427D01*
X138082144Y-72626427D02*
X138044049Y-72702617D01*
X138044049Y-72702617D02*
X138005954Y-72740712D01*
X138005954Y-72740712D02*
X137929763Y-72778808D01*
X137929763Y-72778808D02*
X137815478Y-72778808D01*
X137815478Y-72778808D02*
X137739287Y-72740712D01*
X137739287Y-72740712D02*
X137701192Y-72702617D01*
X137701192Y-72702617D02*
X137663097Y-72626427D01*
X137663097Y-72626427D02*
X137663097Y-72321665D01*
X137320240Y-73426427D02*
X137282144Y-73350236D01*
X137282144Y-73350236D02*
X137282144Y-73197855D01*
X137282144Y-73197855D02*
X137320240Y-73121665D01*
X137320240Y-73121665D02*
X137396430Y-73083569D01*
X137396430Y-73083569D02*
X137701192Y-73083569D01*
X137701192Y-73083569D02*
X137777382Y-73121665D01*
X137777382Y-73121665D02*
X137815478Y-73197855D01*
X137815478Y-73197855D02*
X137815478Y-73350236D01*
X137815478Y-73350236D02*
X137777382Y-73426427D01*
X137777382Y-73426427D02*
X137701192Y-73464522D01*
X137701192Y-73464522D02*
X137625001Y-73464522D01*
X137625001Y-73464522D02*
X137548811Y-73083569D01*
X137282144Y-73807379D02*
X137815478Y-73807379D01*
X137739287Y-73807379D02*
X137777382Y-73845474D01*
X137777382Y-73845474D02*
X137815478Y-73921664D01*
X137815478Y-73921664D02*
X137815478Y-74035950D01*
X137815478Y-74035950D02*
X137777382Y-74112141D01*
X137777382Y-74112141D02*
X137701192Y-74150236D01*
X137701192Y-74150236D02*
X137282144Y-74150236D01*
X137701192Y-74150236D02*
X137777382Y-74188331D01*
X137777382Y-74188331D02*
X137815478Y-74264522D01*
X137815478Y-74264522D02*
X137815478Y-74378807D01*
X137815478Y-74378807D02*
X137777382Y-74454998D01*
X137777382Y-74454998D02*
X137701192Y-74493093D01*
X137701192Y-74493093D02*
X137282144Y-74493093D01*
X137282144Y-74988331D02*
X137320240Y-74912141D01*
X137320240Y-74912141D02*
X137358335Y-74874046D01*
X137358335Y-74874046D02*
X137434525Y-74835950D01*
X137434525Y-74835950D02*
X137663097Y-74835950D01*
X137663097Y-74835950D02*
X137739287Y-74874046D01*
X137739287Y-74874046D02*
X137777382Y-74912141D01*
X137777382Y-74912141D02*
X137815478Y-74988331D01*
X137815478Y-74988331D02*
X137815478Y-75102617D01*
X137815478Y-75102617D02*
X137777382Y-75178808D01*
X137777382Y-75178808D02*
X137739287Y-75216903D01*
X137739287Y-75216903D02*
X137663097Y-75254998D01*
X137663097Y-75254998D02*
X137434525Y-75254998D01*
X137434525Y-75254998D02*
X137358335Y-75216903D01*
X137358335Y-75216903D02*
X137320240Y-75178808D01*
X137320240Y-75178808D02*
X137282144Y-75102617D01*
X137282144Y-75102617D02*
X137282144Y-74988331D01*
X137815478Y-75483570D02*
X137815478Y-75788332D01*
X138082144Y-75597856D02*
X137396430Y-75597856D01*
X137396430Y-75597856D02*
X137320240Y-75635951D01*
X137320240Y-75635951D02*
X137282144Y-75712141D01*
X137282144Y-75712141D02*
X137282144Y-75788332D01*
X137282144Y-76054999D02*
X137815478Y-76054999D01*
X138082144Y-76054999D02*
X138044049Y-76016903D01*
X138044049Y-76016903D02*
X138005954Y-76054999D01*
X138005954Y-76054999D02*
X138044049Y-76093094D01*
X138044049Y-76093094D02*
X138082144Y-76054999D01*
X138082144Y-76054999D02*
X138005954Y-76054999D01*
X137815478Y-76359760D02*
X137282144Y-76550236D01*
X137282144Y-76550236D02*
X137815478Y-76740713D01*
X137320240Y-77350237D02*
X137282144Y-77274046D01*
X137282144Y-77274046D02*
X137282144Y-77121665D01*
X137282144Y-77121665D02*
X137320240Y-77045475D01*
X137320240Y-77045475D02*
X137396430Y-77007379D01*
X137396430Y-77007379D02*
X137701192Y-77007379D01*
X137701192Y-77007379D02*
X137777382Y-77045475D01*
X137777382Y-77045475D02*
X137815478Y-77121665D01*
X137815478Y-77121665D02*
X137815478Y-77274046D01*
X137815478Y-77274046D02*
X137777382Y-77350237D01*
X137777382Y-77350237D02*
X137701192Y-77388332D01*
X137701192Y-77388332D02*
X137625001Y-77388332D01*
X137625001Y-77388332D02*
X137548811Y-77007379D01*
X137282144Y-78112141D02*
X137282144Y-77731189D01*
X137282144Y-77731189D02*
X138082144Y-77731189D01*
X137282144Y-78721665D02*
X137701192Y-78721665D01*
X137701192Y-78721665D02*
X137777382Y-78683570D01*
X137777382Y-78683570D02*
X137815478Y-78607379D01*
X137815478Y-78607379D02*
X137815478Y-78454998D01*
X137815478Y-78454998D02*
X137777382Y-78378808D01*
X137320240Y-78721665D02*
X137282144Y-78645474D01*
X137282144Y-78645474D02*
X137282144Y-78454998D01*
X137282144Y-78454998D02*
X137320240Y-78378808D01*
X137320240Y-78378808D02*
X137396430Y-78340712D01*
X137396430Y-78340712D02*
X137472620Y-78340712D01*
X137472620Y-78340712D02*
X137548811Y-78378808D01*
X137548811Y-78378808D02*
X137586906Y-78454998D01*
X137586906Y-78454998D02*
X137586906Y-78645474D01*
X137586906Y-78645474D02*
X137625001Y-78721665D01*
X137282144Y-79102618D02*
X138082144Y-79102618D01*
X137777382Y-79102618D02*
X137815478Y-79178808D01*
X137815478Y-79178808D02*
X137815478Y-79331189D01*
X137815478Y-79331189D02*
X137777382Y-79407380D01*
X137777382Y-79407380D02*
X137739287Y-79445475D01*
X137739287Y-79445475D02*
X137663097Y-79483570D01*
X137663097Y-79483570D02*
X137434525Y-79483570D01*
X137434525Y-79483570D02*
X137358335Y-79445475D01*
X137358335Y-79445475D02*
X137320240Y-79407380D01*
X137320240Y-79407380D02*
X137282144Y-79331189D01*
X137282144Y-79331189D02*
X137282144Y-79178808D01*
X137282144Y-79178808D02*
X137320240Y-79102618D01*
X137320240Y-79788332D02*
X137282144Y-79864523D01*
X137282144Y-79864523D02*
X137282144Y-80016904D01*
X137282144Y-80016904D02*
X137320240Y-80093094D01*
X137320240Y-80093094D02*
X137396430Y-80131190D01*
X137396430Y-80131190D02*
X137434525Y-80131190D01*
X137434525Y-80131190D02*
X137510716Y-80093094D01*
X137510716Y-80093094D02*
X137548811Y-80016904D01*
X137548811Y-80016904D02*
X137548811Y-79902618D01*
X137548811Y-79902618D02*
X137586906Y-79826428D01*
X137586906Y-79826428D02*
X137663097Y-79788332D01*
X137663097Y-79788332D02*
X137701192Y-79788332D01*
X137701192Y-79788332D02*
X137777382Y-79826428D01*
X137777382Y-79826428D02*
X137815478Y-79902618D01*
X137815478Y-79902618D02*
X137815478Y-80016904D01*
X137815478Y-80016904D02*
X137777382Y-80093094D01*
X137282144Y-81540714D02*
X137663097Y-81274047D01*
X137282144Y-81083571D02*
X138082144Y-81083571D01*
X138082144Y-81083571D02*
X138082144Y-81388333D01*
X138082144Y-81388333D02*
X138044049Y-81464523D01*
X138044049Y-81464523D02*
X138005954Y-81502618D01*
X138005954Y-81502618D02*
X137929763Y-81540714D01*
X137929763Y-81540714D02*
X137815478Y-81540714D01*
X137815478Y-81540714D02*
X137739287Y-81502618D01*
X137739287Y-81502618D02*
X137701192Y-81464523D01*
X137701192Y-81464523D02*
X137663097Y-81388333D01*
X137663097Y-81388333D02*
X137663097Y-81083571D01*
X137320240Y-82188333D02*
X137282144Y-82112142D01*
X137282144Y-82112142D02*
X137282144Y-81959761D01*
X137282144Y-81959761D02*
X137320240Y-81883571D01*
X137320240Y-81883571D02*
X137396430Y-81845475D01*
X137396430Y-81845475D02*
X137701192Y-81845475D01*
X137701192Y-81845475D02*
X137777382Y-81883571D01*
X137777382Y-81883571D02*
X137815478Y-81959761D01*
X137815478Y-81959761D02*
X137815478Y-82112142D01*
X137815478Y-82112142D02*
X137777382Y-82188333D01*
X137777382Y-82188333D02*
X137701192Y-82226428D01*
X137701192Y-82226428D02*
X137625001Y-82226428D01*
X137625001Y-82226428D02*
X137548811Y-81845475D01*
X137282144Y-82569285D02*
X137815478Y-82569285D01*
X137739287Y-82569285D02*
X137777382Y-82607380D01*
X137777382Y-82607380D02*
X137815478Y-82683570D01*
X137815478Y-82683570D02*
X137815478Y-82797856D01*
X137815478Y-82797856D02*
X137777382Y-82874047D01*
X137777382Y-82874047D02*
X137701192Y-82912142D01*
X137701192Y-82912142D02*
X137282144Y-82912142D01*
X137701192Y-82912142D02*
X137777382Y-82950237D01*
X137777382Y-82950237D02*
X137815478Y-83026428D01*
X137815478Y-83026428D02*
X137815478Y-83140713D01*
X137815478Y-83140713D02*
X137777382Y-83216904D01*
X137777382Y-83216904D02*
X137701192Y-83254999D01*
X137701192Y-83254999D02*
X137282144Y-83254999D01*
X137282144Y-83750237D02*
X137320240Y-83674047D01*
X137320240Y-83674047D02*
X137358335Y-83635952D01*
X137358335Y-83635952D02*
X137434525Y-83597856D01*
X137434525Y-83597856D02*
X137663097Y-83597856D01*
X137663097Y-83597856D02*
X137739287Y-83635952D01*
X137739287Y-83635952D02*
X137777382Y-83674047D01*
X137777382Y-83674047D02*
X137815478Y-83750237D01*
X137815478Y-83750237D02*
X137815478Y-83864523D01*
X137815478Y-83864523D02*
X137777382Y-83940714D01*
X137777382Y-83940714D02*
X137739287Y-83978809D01*
X137739287Y-83978809D02*
X137663097Y-84016904D01*
X137663097Y-84016904D02*
X137434525Y-84016904D01*
X137434525Y-84016904D02*
X137358335Y-83978809D01*
X137358335Y-83978809D02*
X137320240Y-83940714D01*
X137320240Y-83940714D02*
X137282144Y-83864523D01*
X137282144Y-83864523D02*
X137282144Y-83750237D01*
X137815478Y-84245476D02*
X137815478Y-84550238D01*
X138082144Y-84359762D02*
X137396430Y-84359762D01*
X137396430Y-84359762D02*
X137320240Y-84397857D01*
X137320240Y-84397857D02*
X137282144Y-84474047D01*
X137282144Y-84474047D02*
X137282144Y-84550238D01*
X137282144Y-84816905D02*
X137815478Y-84816905D01*
X138082144Y-84816905D02*
X138044049Y-84778809D01*
X138044049Y-84778809D02*
X138005954Y-84816905D01*
X138005954Y-84816905D02*
X138044049Y-84855000D01*
X138044049Y-84855000D02*
X138082144Y-84816905D01*
X138082144Y-84816905D02*
X138005954Y-84816905D01*
X137815478Y-85121666D02*
X137282144Y-85312142D01*
X137282144Y-85312142D02*
X137815478Y-85502619D01*
X137320240Y-86112143D02*
X137282144Y-86035952D01*
X137282144Y-86035952D02*
X137282144Y-85883571D01*
X137282144Y-85883571D02*
X137320240Y-85807381D01*
X137320240Y-85807381D02*
X137396430Y-85769285D01*
X137396430Y-85769285D02*
X137701192Y-85769285D01*
X137701192Y-85769285D02*
X137777382Y-85807381D01*
X137777382Y-85807381D02*
X137815478Y-85883571D01*
X137815478Y-85883571D02*
X137815478Y-86035952D01*
X137815478Y-86035952D02*
X137777382Y-86112143D01*
X137777382Y-86112143D02*
X137701192Y-86150238D01*
X137701192Y-86150238D02*
X137625001Y-86150238D01*
X137625001Y-86150238D02*
X137548811Y-85769285D01*
X137701192Y-86759761D02*
X137663097Y-86874047D01*
X137663097Y-86874047D02*
X137625001Y-86912142D01*
X137625001Y-86912142D02*
X137548811Y-86950238D01*
X137548811Y-86950238D02*
X137434525Y-86950238D01*
X137434525Y-86950238D02*
X137358335Y-86912142D01*
X137358335Y-86912142D02*
X137320240Y-86874047D01*
X137320240Y-86874047D02*
X137282144Y-86797857D01*
X137282144Y-86797857D02*
X137282144Y-86493095D01*
X137282144Y-86493095D02*
X138082144Y-86493095D01*
X138082144Y-86493095D02*
X138082144Y-86759761D01*
X138082144Y-86759761D02*
X138044049Y-86835952D01*
X138044049Y-86835952D02*
X138005954Y-86874047D01*
X138005954Y-86874047D02*
X137929763Y-86912142D01*
X137929763Y-86912142D02*
X137853573Y-86912142D01*
X137853573Y-86912142D02*
X137777382Y-86874047D01*
X137777382Y-86874047D02*
X137739287Y-86835952D01*
X137739287Y-86835952D02*
X137701192Y-86759761D01*
X137701192Y-86759761D02*
X137701192Y-86493095D01*
X137282144Y-87407380D02*
X137320240Y-87331190D01*
X137320240Y-87331190D02*
X137358335Y-87293095D01*
X137358335Y-87293095D02*
X137434525Y-87254999D01*
X137434525Y-87254999D02*
X137663097Y-87254999D01*
X137663097Y-87254999D02*
X137739287Y-87293095D01*
X137739287Y-87293095D02*
X137777382Y-87331190D01*
X137777382Y-87331190D02*
X137815478Y-87407380D01*
X137815478Y-87407380D02*
X137815478Y-87521666D01*
X137815478Y-87521666D02*
X137777382Y-87597857D01*
X137777382Y-87597857D02*
X137739287Y-87635952D01*
X137739287Y-87635952D02*
X137663097Y-87674047D01*
X137663097Y-87674047D02*
X137434525Y-87674047D01*
X137434525Y-87674047D02*
X137358335Y-87635952D01*
X137358335Y-87635952D02*
X137320240Y-87597857D01*
X137320240Y-87597857D02*
X137282144Y-87521666D01*
X137282144Y-87521666D02*
X137282144Y-87407380D01*
X137282144Y-87940714D02*
X137815478Y-88359762D01*
X137815478Y-87940714D02*
X137282144Y-88359762D01*
X137510716Y-89235952D02*
X137510716Y-89616905D01*
X137282144Y-89159762D02*
X138082144Y-89426429D01*
X138082144Y-89426429D02*
X137282144Y-89693095D01*
X137282144Y-90302619D02*
X138082144Y-90302619D01*
X137320240Y-90302619D02*
X137282144Y-90226428D01*
X137282144Y-90226428D02*
X137282144Y-90074047D01*
X137282144Y-90074047D02*
X137320240Y-89997857D01*
X137320240Y-89997857D02*
X137358335Y-89959762D01*
X137358335Y-89959762D02*
X137434525Y-89921666D01*
X137434525Y-89921666D02*
X137663097Y-89921666D01*
X137663097Y-89921666D02*
X137739287Y-89959762D01*
X137739287Y-89959762D02*
X137777382Y-89997857D01*
X137777382Y-89997857D02*
X137815478Y-90074047D01*
X137815478Y-90074047D02*
X137815478Y-90226428D01*
X137815478Y-90226428D02*
X137777382Y-90302619D01*
X137282144Y-91026429D02*
X137701192Y-91026429D01*
X137701192Y-91026429D02*
X137777382Y-90988334D01*
X137777382Y-90988334D02*
X137815478Y-90912143D01*
X137815478Y-90912143D02*
X137815478Y-90759762D01*
X137815478Y-90759762D02*
X137777382Y-90683572D01*
X137320240Y-91026429D02*
X137282144Y-90950238D01*
X137282144Y-90950238D02*
X137282144Y-90759762D01*
X137282144Y-90759762D02*
X137320240Y-90683572D01*
X137320240Y-90683572D02*
X137396430Y-90645476D01*
X137396430Y-90645476D02*
X137472620Y-90645476D01*
X137472620Y-90645476D02*
X137548811Y-90683572D01*
X137548811Y-90683572D02*
X137586906Y-90759762D01*
X137586906Y-90759762D02*
X137586906Y-90950238D01*
X137586906Y-90950238D02*
X137625001Y-91026429D01*
X137815478Y-91407382D02*
X137015478Y-91407382D01*
X137777382Y-91407382D02*
X137815478Y-91483572D01*
X137815478Y-91483572D02*
X137815478Y-91635953D01*
X137815478Y-91635953D02*
X137777382Y-91712144D01*
X137777382Y-91712144D02*
X137739287Y-91750239D01*
X137739287Y-91750239D02*
X137663097Y-91788334D01*
X137663097Y-91788334D02*
X137434525Y-91788334D01*
X137434525Y-91788334D02*
X137358335Y-91750239D01*
X137358335Y-91750239D02*
X137320240Y-91712144D01*
X137320240Y-91712144D02*
X137282144Y-91635953D01*
X137282144Y-91635953D02*
X137282144Y-91483572D01*
X137282144Y-91483572D02*
X137320240Y-91407382D01*
X137815478Y-92016906D02*
X137815478Y-92321668D01*
X138082144Y-92131192D02*
X137396430Y-92131192D01*
X137396430Y-92131192D02*
X137320240Y-92169287D01*
X137320240Y-92169287D02*
X137282144Y-92245477D01*
X137282144Y-92245477D02*
X137282144Y-92321668D01*
X137320240Y-92893097D02*
X137282144Y-92816906D01*
X137282144Y-92816906D02*
X137282144Y-92664525D01*
X137282144Y-92664525D02*
X137320240Y-92588335D01*
X137320240Y-92588335D02*
X137396430Y-92550239D01*
X137396430Y-92550239D02*
X137701192Y-92550239D01*
X137701192Y-92550239D02*
X137777382Y-92588335D01*
X137777382Y-92588335D02*
X137815478Y-92664525D01*
X137815478Y-92664525D02*
X137815478Y-92816906D01*
X137815478Y-92816906D02*
X137777382Y-92893097D01*
X137777382Y-92893097D02*
X137701192Y-92931192D01*
X137701192Y-92931192D02*
X137625001Y-92931192D01*
X137625001Y-92931192D02*
X137548811Y-92550239D01*
X137282144Y-93274049D02*
X137815478Y-93274049D01*
X137663097Y-93274049D02*
X137739287Y-93312144D01*
X137739287Y-93312144D02*
X137777382Y-93350239D01*
X137777382Y-93350239D02*
X137815478Y-93426430D01*
X137815478Y-93426430D02*
X137815478Y-93502620D01*
X138082144Y-94264525D02*
X137282144Y-94531192D01*
X137282144Y-94531192D02*
X138082144Y-94797858D01*
X138082144Y-95216906D02*
X138082144Y-95293096D01*
X138082144Y-95293096D02*
X138044049Y-95369287D01*
X138044049Y-95369287D02*
X138005954Y-95407382D01*
X138005954Y-95407382D02*
X137929763Y-95445477D01*
X137929763Y-95445477D02*
X137777382Y-95483572D01*
X137777382Y-95483572D02*
X137586906Y-95483572D01*
X137586906Y-95483572D02*
X137434525Y-95445477D01*
X137434525Y-95445477D02*
X137358335Y-95407382D01*
X137358335Y-95407382D02*
X137320240Y-95369287D01*
X137320240Y-95369287D02*
X137282144Y-95293096D01*
X137282144Y-95293096D02*
X137282144Y-95216906D01*
X137282144Y-95216906D02*
X137320240Y-95140715D01*
X137320240Y-95140715D02*
X137358335Y-95102620D01*
X137358335Y-95102620D02*
X137434525Y-95064525D01*
X137434525Y-95064525D02*
X137586906Y-95026429D01*
X137586906Y-95026429D02*
X137777382Y-95026429D01*
X137777382Y-95026429D02*
X137929763Y-95064525D01*
X137929763Y-95064525D02*
X138005954Y-95102620D01*
X138005954Y-95102620D02*
X138044049Y-95140715D01*
X138044049Y-95140715D02*
X138082144Y-95216906D01*
X137358335Y-95826430D02*
X137320240Y-95864525D01*
X137320240Y-95864525D02*
X137282144Y-95826430D01*
X137282144Y-95826430D02*
X137320240Y-95788334D01*
X137320240Y-95788334D02*
X137358335Y-95826430D01*
X137358335Y-95826430D02*
X137282144Y-95826430D01*
X137282144Y-96626429D02*
X137282144Y-96169286D01*
X137282144Y-96397858D02*
X138082144Y-96397858D01*
X138082144Y-96397858D02*
X137967859Y-96321667D01*
X137967859Y-96321667D02*
X137891668Y-96245477D01*
X137891668Y-96245477D02*
X137853573Y-96169286D01*
X136717954Y-80569284D02*
X136756049Y-80607380D01*
X136756049Y-80607380D02*
X136794144Y-80683570D01*
X136794144Y-80683570D02*
X136794144Y-80874046D01*
X136794144Y-80874046D02*
X136756049Y-80950237D01*
X136756049Y-80950237D02*
X136717954Y-80988332D01*
X136717954Y-80988332D02*
X136641763Y-81026427D01*
X136641763Y-81026427D02*
X136565573Y-81026427D01*
X136565573Y-81026427D02*
X136451287Y-80988332D01*
X136451287Y-80988332D02*
X135994144Y-80531189D01*
X135994144Y-80531189D02*
X135994144Y-81026427D01*
X136794144Y-81521666D02*
X136794144Y-81597856D01*
X136794144Y-81597856D02*
X136756049Y-81674047D01*
X136756049Y-81674047D02*
X136717954Y-81712142D01*
X136717954Y-81712142D02*
X136641763Y-81750237D01*
X136641763Y-81750237D02*
X136489382Y-81788332D01*
X136489382Y-81788332D02*
X136298906Y-81788332D01*
X136298906Y-81788332D02*
X136146525Y-81750237D01*
X136146525Y-81750237D02*
X136070335Y-81712142D01*
X136070335Y-81712142D02*
X136032240Y-81674047D01*
X136032240Y-81674047D02*
X135994144Y-81597856D01*
X135994144Y-81597856D02*
X135994144Y-81521666D01*
X135994144Y-81521666D02*
X136032240Y-81445475D01*
X136032240Y-81445475D02*
X136070335Y-81407380D01*
X136070335Y-81407380D02*
X136146525Y-81369285D01*
X136146525Y-81369285D02*
X136298906Y-81331189D01*
X136298906Y-81331189D02*
X136489382Y-81331189D01*
X136489382Y-81331189D02*
X136641763Y-81369285D01*
X136641763Y-81369285D02*
X136717954Y-81407380D01*
X136717954Y-81407380D02*
X136756049Y-81445475D01*
X136756049Y-81445475D02*
X136794144Y-81521666D01*
X136717954Y-82093094D02*
X136756049Y-82131190D01*
X136756049Y-82131190D02*
X136794144Y-82207380D01*
X136794144Y-82207380D02*
X136794144Y-82397856D01*
X136794144Y-82397856D02*
X136756049Y-82474047D01*
X136756049Y-82474047D02*
X136717954Y-82512142D01*
X136717954Y-82512142D02*
X136641763Y-82550237D01*
X136641763Y-82550237D02*
X136565573Y-82550237D01*
X136565573Y-82550237D02*
X136451287Y-82512142D01*
X136451287Y-82512142D02*
X135994144Y-82054999D01*
X135994144Y-82054999D02*
X135994144Y-82550237D01*
X136794144Y-82816904D02*
X136794144Y-83312142D01*
X136794144Y-83312142D02*
X136489382Y-83045476D01*
X136489382Y-83045476D02*
X136489382Y-83159761D01*
X136489382Y-83159761D02*
X136451287Y-83235952D01*
X136451287Y-83235952D02*
X136413192Y-83274047D01*
X136413192Y-83274047D02*
X136337001Y-83312142D01*
X136337001Y-83312142D02*
X136146525Y-83312142D01*
X136146525Y-83312142D02*
X136070335Y-83274047D01*
X136070335Y-83274047D02*
X136032240Y-83235952D01*
X136032240Y-83235952D02*
X135994144Y-83159761D01*
X135994144Y-83159761D02*
X135994144Y-82931190D01*
X135994144Y-82931190D02*
X136032240Y-82854999D01*
X136032240Y-82854999D02*
X136070335Y-82816904D01*
X136298906Y-83655000D02*
X136298906Y-84264524D01*
X136794144Y-84797857D02*
X136794144Y-84874047D01*
X136794144Y-84874047D02*
X136756049Y-84950238D01*
X136756049Y-84950238D02*
X136717954Y-84988333D01*
X136717954Y-84988333D02*
X136641763Y-85026428D01*
X136641763Y-85026428D02*
X136489382Y-85064523D01*
X136489382Y-85064523D02*
X136298906Y-85064523D01*
X136298906Y-85064523D02*
X136146525Y-85026428D01*
X136146525Y-85026428D02*
X136070335Y-84988333D01*
X136070335Y-84988333D02*
X136032240Y-84950238D01*
X136032240Y-84950238D02*
X135994144Y-84874047D01*
X135994144Y-84874047D02*
X135994144Y-84797857D01*
X135994144Y-84797857D02*
X136032240Y-84721666D01*
X136032240Y-84721666D02*
X136070335Y-84683571D01*
X136070335Y-84683571D02*
X136146525Y-84645476D01*
X136146525Y-84645476D02*
X136298906Y-84607380D01*
X136298906Y-84607380D02*
X136489382Y-84607380D01*
X136489382Y-84607380D02*
X136641763Y-84645476D01*
X136641763Y-84645476D02*
X136717954Y-84683571D01*
X136717954Y-84683571D02*
X136756049Y-84721666D01*
X136756049Y-84721666D02*
X136794144Y-84797857D01*
X136451287Y-85521666D02*
X136489382Y-85445476D01*
X136489382Y-85445476D02*
X136527478Y-85407381D01*
X136527478Y-85407381D02*
X136603668Y-85369285D01*
X136603668Y-85369285D02*
X136641763Y-85369285D01*
X136641763Y-85369285D02*
X136717954Y-85407381D01*
X136717954Y-85407381D02*
X136756049Y-85445476D01*
X136756049Y-85445476D02*
X136794144Y-85521666D01*
X136794144Y-85521666D02*
X136794144Y-85674047D01*
X136794144Y-85674047D02*
X136756049Y-85750238D01*
X136756049Y-85750238D02*
X136717954Y-85788333D01*
X136717954Y-85788333D02*
X136641763Y-85826428D01*
X136641763Y-85826428D02*
X136603668Y-85826428D01*
X136603668Y-85826428D02*
X136527478Y-85788333D01*
X136527478Y-85788333D02*
X136489382Y-85750238D01*
X136489382Y-85750238D02*
X136451287Y-85674047D01*
X136451287Y-85674047D02*
X136451287Y-85521666D01*
X136451287Y-85521666D02*
X136413192Y-85445476D01*
X136413192Y-85445476D02*
X136375097Y-85407381D01*
X136375097Y-85407381D02*
X136298906Y-85369285D01*
X136298906Y-85369285D02*
X136146525Y-85369285D01*
X136146525Y-85369285D02*
X136070335Y-85407381D01*
X136070335Y-85407381D02*
X136032240Y-85445476D01*
X136032240Y-85445476D02*
X135994144Y-85521666D01*
X135994144Y-85521666D02*
X135994144Y-85674047D01*
X135994144Y-85674047D02*
X136032240Y-85750238D01*
X136032240Y-85750238D02*
X136070335Y-85788333D01*
X136070335Y-85788333D02*
X136146525Y-85826428D01*
X136146525Y-85826428D02*
X136298906Y-85826428D01*
X136298906Y-85826428D02*
X136375097Y-85788333D01*
X136375097Y-85788333D02*
X136413192Y-85750238D01*
X136413192Y-85750238D02*
X136451287Y-85674047D01*
X136298906Y-86169286D02*
X136298906Y-86778810D01*
X136794144Y-87312143D02*
X136794144Y-87388333D01*
X136794144Y-87388333D02*
X136756049Y-87464524D01*
X136756049Y-87464524D02*
X136717954Y-87502619D01*
X136717954Y-87502619D02*
X136641763Y-87540714D01*
X136641763Y-87540714D02*
X136489382Y-87578809D01*
X136489382Y-87578809D02*
X136298906Y-87578809D01*
X136298906Y-87578809D02*
X136146525Y-87540714D01*
X136146525Y-87540714D02*
X136070335Y-87502619D01*
X136070335Y-87502619D02*
X136032240Y-87464524D01*
X136032240Y-87464524D02*
X135994144Y-87388333D01*
X135994144Y-87388333D02*
X135994144Y-87312143D01*
X135994144Y-87312143D02*
X136032240Y-87235952D01*
X136032240Y-87235952D02*
X136070335Y-87197857D01*
X136070335Y-87197857D02*
X136146525Y-87159762D01*
X136146525Y-87159762D02*
X136298906Y-87121666D01*
X136298906Y-87121666D02*
X136489382Y-87121666D01*
X136489382Y-87121666D02*
X136641763Y-87159762D01*
X136641763Y-87159762D02*
X136717954Y-87197857D01*
X136717954Y-87197857D02*
X136756049Y-87235952D01*
X136756049Y-87235952D02*
X136794144Y-87312143D01*
X136527478Y-88264524D02*
X135994144Y-88264524D01*
X136832240Y-88074048D02*
X136260811Y-87883571D01*
X136260811Y-87883571D02*
X136260811Y-88378810D01*
D10*
X144957969Y-104914819D02*
X144481779Y-104914819D01*
X144481779Y-104914819D02*
X144434160Y-105391009D01*
X144434160Y-105391009D02*
X144481779Y-105343390D01*
X144481779Y-105343390D02*
X144577017Y-105295771D01*
X144577017Y-105295771D02*
X144815112Y-105295771D01*
X144815112Y-105295771D02*
X144910350Y-105343390D01*
X144910350Y-105343390D02*
X144957969Y-105391009D01*
X144957969Y-105391009D02*
X145005588Y-105486247D01*
X145005588Y-105486247D02*
X145005588Y-105724342D01*
X145005588Y-105724342D02*
X144957969Y-105819580D01*
X144957969Y-105819580D02*
X144910350Y-105867200D01*
X144910350Y-105867200D02*
X144815112Y-105914819D01*
X144815112Y-105914819D02*
X144577017Y-105914819D01*
X144577017Y-105914819D02*
X144481779Y-105867200D01*
X144481779Y-105867200D02*
X144434160Y-105819580D01*
X145291303Y-104914819D02*
X145624636Y-105914819D01*
X145624636Y-105914819D02*
X145957969Y-104914819D01*
X184337438Y-86134411D02*
X184289819Y-86229649D01*
X184289819Y-86229649D02*
X184289819Y-86372506D01*
X184289819Y-86372506D02*
X184337438Y-86515363D01*
X184337438Y-86515363D02*
X184432676Y-86610601D01*
X184432676Y-86610601D02*
X184527914Y-86658220D01*
X184527914Y-86658220D02*
X184718390Y-86705839D01*
X184718390Y-86705839D02*
X184861247Y-86705839D01*
X184861247Y-86705839D02*
X185051723Y-86658220D01*
X185051723Y-86658220D02*
X185146961Y-86610601D01*
X185146961Y-86610601D02*
X185242200Y-86515363D01*
X185242200Y-86515363D02*
X185289819Y-86372506D01*
X185289819Y-86372506D02*
X185289819Y-86277268D01*
X185289819Y-86277268D02*
X185242200Y-86134411D01*
X185242200Y-86134411D02*
X185194580Y-86086792D01*
X185194580Y-86086792D02*
X184861247Y-86086792D01*
X184861247Y-86086792D02*
X184861247Y-86277268D01*
X185289819Y-85658220D02*
X184289819Y-85658220D01*
X184289819Y-85658220D02*
X185289819Y-85086792D01*
X185289819Y-85086792D02*
X184289819Y-85086792D01*
X185289819Y-84610601D02*
X184289819Y-84610601D01*
X184289819Y-84610601D02*
X184289819Y-84372506D01*
X184289819Y-84372506D02*
X184337438Y-84229649D01*
X184337438Y-84229649D02*
X184432676Y-84134411D01*
X184432676Y-84134411D02*
X184527914Y-84086792D01*
X184527914Y-84086792D02*
X184718390Y-84039173D01*
X184718390Y-84039173D02*
X184861247Y-84039173D01*
X184861247Y-84039173D02*
X185051723Y-84086792D01*
X185051723Y-84086792D02*
X185146961Y-84134411D01*
X185146961Y-84134411D02*
X185242200Y-84229649D01*
X185242200Y-84229649D02*
X185289819Y-84372506D01*
X185289819Y-84372506D02*
X185289819Y-84610601D01*
X184922438Y-94741904D02*
X184874819Y-94837142D01*
X184874819Y-94837142D02*
X184874819Y-94979999D01*
X184874819Y-94979999D02*
X184922438Y-95122856D01*
X184922438Y-95122856D02*
X185017676Y-95218094D01*
X185017676Y-95218094D02*
X185112914Y-95265713D01*
X185112914Y-95265713D02*
X185303390Y-95313332D01*
X185303390Y-95313332D02*
X185446247Y-95313332D01*
X185446247Y-95313332D02*
X185636723Y-95265713D01*
X185636723Y-95265713D02*
X185731961Y-95218094D01*
X185731961Y-95218094D02*
X185827200Y-95122856D01*
X185827200Y-95122856D02*
X185874819Y-94979999D01*
X185874819Y-94979999D02*
X185874819Y-94884761D01*
X185874819Y-94884761D02*
X185827200Y-94741904D01*
X185827200Y-94741904D02*
X185779580Y-94694285D01*
X185779580Y-94694285D02*
X185446247Y-94694285D01*
X185446247Y-94694285D02*
X185446247Y-94884761D01*
X185874819Y-94265713D02*
X184874819Y-94265713D01*
X184874819Y-94265713D02*
X185874819Y-93694285D01*
X185874819Y-93694285D02*
X184874819Y-93694285D01*
X185874819Y-93218094D02*
X184874819Y-93218094D01*
X184874819Y-93218094D02*
X184874819Y-92979999D01*
X184874819Y-92979999D02*
X184922438Y-92837142D01*
X184922438Y-92837142D02*
X185017676Y-92741904D01*
X185017676Y-92741904D02*
X185112914Y-92694285D01*
X185112914Y-92694285D02*
X185303390Y-92646666D01*
X185303390Y-92646666D02*
X185446247Y-92646666D01*
X185446247Y-92646666D02*
X185636723Y-92694285D01*
X185636723Y-92694285D02*
X185731961Y-92741904D01*
X185731961Y-92741904D02*
X185827200Y-92837142D01*
X185827200Y-92837142D02*
X185874819Y-92979999D01*
X185874819Y-92979999D02*
X185874819Y-93218094D01*
X150632438Y-94741904D02*
X150584819Y-94837142D01*
X150584819Y-94837142D02*
X150584819Y-94979999D01*
X150584819Y-94979999D02*
X150632438Y-95122856D01*
X150632438Y-95122856D02*
X150727676Y-95218094D01*
X150727676Y-95218094D02*
X150822914Y-95265713D01*
X150822914Y-95265713D02*
X151013390Y-95313332D01*
X151013390Y-95313332D02*
X151156247Y-95313332D01*
X151156247Y-95313332D02*
X151346723Y-95265713D01*
X151346723Y-95265713D02*
X151441961Y-95218094D01*
X151441961Y-95218094D02*
X151537200Y-95122856D01*
X151537200Y-95122856D02*
X151584819Y-94979999D01*
X151584819Y-94979999D02*
X151584819Y-94884761D01*
X151584819Y-94884761D02*
X151537200Y-94741904D01*
X151537200Y-94741904D02*
X151489580Y-94694285D01*
X151489580Y-94694285D02*
X151156247Y-94694285D01*
X151156247Y-94694285D02*
X151156247Y-94884761D01*
X151584819Y-94265713D02*
X150584819Y-94265713D01*
X150584819Y-94265713D02*
X151584819Y-93694285D01*
X151584819Y-93694285D02*
X150584819Y-93694285D01*
X151584819Y-93218094D02*
X150584819Y-93218094D01*
X150584819Y-93218094D02*
X150584819Y-92979999D01*
X150584819Y-92979999D02*
X150632438Y-92837142D01*
X150632438Y-92837142D02*
X150727676Y-92741904D01*
X150727676Y-92741904D02*
X150822914Y-92694285D01*
X150822914Y-92694285D02*
X151013390Y-92646666D01*
X151013390Y-92646666D02*
X151156247Y-92646666D01*
X151156247Y-92646666D02*
X151346723Y-92694285D01*
X151346723Y-92694285D02*
X151441961Y-92741904D01*
X151441961Y-92741904D02*
X151537200Y-92837142D01*
X151537200Y-92837142D02*
X151584819Y-92979999D01*
X151584819Y-92979999D02*
X151584819Y-93218094D01*
X155664819Y-94170476D02*
X155664819Y-94646666D01*
X155664819Y-94646666D02*
X156141009Y-94694285D01*
X156141009Y-94694285D02*
X156093390Y-94646666D01*
X156093390Y-94646666D02*
X156045771Y-94551428D01*
X156045771Y-94551428D02*
X156045771Y-94313333D01*
X156045771Y-94313333D02*
X156093390Y-94218095D01*
X156093390Y-94218095D02*
X156141009Y-94170476D01*
X156141009Y-94170476D02*
X156236247Y-94122857D01*
X156236247Y-94122857D02*
X156474342Y-94122857D01*
X156474342Y-94122857D02*
X156569580Y-94170476D01*
X156569580Y-94170476D02*
X156617200Y-94218095D01*
X156617200Y-94218095D02*
X156664819Y-94313333D01*
X156664819Y-94313333D02*
X156664819Y-94551428D01*
X156664819Y-94551428D02*
X156617200Y-94646666D01*
X156617200Y-94646666D02*
X156569580Y-94694285D01*
X155664819Y-93837142D02*
X156664819Y-93503809D01*
X156664819Y-93503809D02*
X155664819Y-93170476D01*
X195246666Y-78829819D02*
X195246666Y-79544104D01*
X195246666Y-79544104D02*
X195199047Y-79686961D01*
X195199047Y-79686961D02*
X195103809Y-79782200D01*
X195103809Y-79782200D02*
X194960952Y-79829819D01*
X194960952Y-79829819D02*
X194865714Y-79829819D01*
X195675238Y-78925057D02*
X195722857Y-78877438D01*
X195722857Y-78877438D02*
X195818095Y-78829819D01*
X195818095Y-78829819D02*
X196056190Y-78829819D01*
X196056190Y-78829819D02*
X196151428Y-78877438D01*
X196151428Y-78877438D02*
X196199047Y-78925057D01*
X196199047Y-78925057D02*
X196246666Y-79020295D01*
X196246666Y-79020295D02*
X196246666Y-79115533D01*
X196246666Y-79115533D02*
X196199047Y-79258390D01*
X196199047Y-79258390D02*
X195627619Y-79829819D01*
X195627619Y-79829819D02*
X196246666Y-79829819D01*
X203073095Y-65224819D02*
X203073095Y-64224819D01*
X203073095Y-64701009D02*
X203644523Y-64701009D01*
X203644523Y-65224819D02*
X203644523Y-64224819D01*
X204073095Y-64320057D02*
X204120714Y-64272438D01*
X204120714Y-64272438D02*
X204215952Y-64224819D01*
X204215952Y-64224819D02*
X204454047Y-64224819D01*
X204454047Y-64224819D02*
X204549285Y-64272438D01*
X204549285Y-64272438D02*
X204596904Y-64320057D01*
X204596904Y-64320057D02*
X204644523Y-64415295D01*
X204644523Y-64415295D02*
X204644523Y-64510533D01*
X204644523Y-64510533D02*
X204596904Y-64653390D01*
X204596904Y-64653390D02*
X204025476Y-65224819D01*
X204025476Y-65224819D02*
X204644523Y-65224819D01*
X203073095Y-91894819D02*
X203073095Y-90894819D01*
X203073095Y-91371009D02*
X203644523Y-91371009D01*
X203644523Y-91894819D02*
X203644523Y-90894819D01*
X204025476Y-90894819D02*
X204644523Y-90894819D01*
X204644523Y-90894819D02*
X204311190Y-91275771D01*
X204311190Y-91275771D02*
X204454047Y-91275771D01*
X204454047Y-91275771D02*
X204549285Y-91323390D01*
X204549285Y-91323390D02*
X204596904Y-91371009D01*
X204596904Y-91371009D02*
X204644523Y-91466247D01*
X204644523Y-91466247D02*
X204644523Y-91704342D01*
X204644523Y-91704342D02*
X204596904Y-91799580D01*
X204596904Y-91799580D02*
X204549285Y-91847200D01*
X204549285Y-91847200D02*
X204454047Y-91894819D01*
X204454047Y-91894819D02*
X204168333Y-91894819D01*
X204168333Y-91894819D02*
X204073095Y-91847200D01*
X204073095Y-91847200D02*
X204025476Y-91799580D01*
X138303095Y-100149819D02*
X138303095Y-99149819D01*
X138303095Y-99626009D02*
X138874523Y-99626009D01*
X138874523Y-100149819D02*
X138874523Y-99149819D01*
X139779285Y-99483152D02*
X139779285Y-100149819D01*
X139541190Y-99102200D02*
X139303095Y-99816485D01*
X139303095Y-99816485D02*
X139922142Y-99816485D01*
X138303095Y-70304819D02*
X138303095Y-69304819D01*
X138303095Y-69781009D02*
X138874523Y-69781009D01*
X138874523Y-70304819D02*
X138874523Y-69304819D01*
X139874523Y-70304819D02*
X139303095Y-70304819D01*
X139588809Y-70304819D02*
X139588809Y-69304819D01*
X139588809Y-69304819D02*
X139493571Y-69447676D01*
X139493571Y-69447676D02*
X139398333Y-69542914D01*
X139398333Y-69542914D02*
X139303095Y-69590533D01*
X194611666Y-64859819D02*
X194611666Y-65574104D01*
X194611666Y-65574104D02*
X194564047Y-65716961D01*
X194564047Y-65716961D02*
X194468809Y-65812200D01*
X194468809Y-65812200D02*
X194325952Y-65859819D01*
X194325952Y-65859819D02*
X194230714Y-65859819D01*
X195611666Y-65859819D02*
X195040238Y-65859819D01*
X195325952Y-65859819D02*
X195325952Y-64859819D01*
X195325952Y-64859819D02*
X195230714Y-65002676D01*
X195230714Y-65002676D02*
X195135476Y-65097914D01*
X195135476Y-65097914D02*
X195040238Y-65145533D01*
X153336666Y-96609819D02*
X153336666Y-97324104D01*
X153336666Y-97324104D02*
X153289047Y-97466961D01*
X153289047Y-97466961D02*
X153193809Y-97562200D01*
X153193809Y-97562200D02*
X153050952Y-97609819D01*
X153050952Y-97609819D02*
X152955714Y-97609819D01*
X153860476Y-97609819D02*
X154050952Y-97609819D01*
X154050952Y-97609819D02*
X154146190Y-97562200D01*
X154146190Y-97562200D02*
X154193809Y-97514580D01*
X154193809Y-97514580D02*
X154289047Y-97371723D01*
X154289047Y-97371723D02*
X154336666Y-97181247D01*
X154336666Y-97181247D02*
X154336666Y-96800295D01*
X154336666Y-96800295D02*
X154289047Y-96705057D01*
X154289047Y-96705057D02*
X154241428Y-96657438D01*
X154241428Y-96657438D02*
X154146190Y-96609819D01*
X154146190Y-96609819D02*
X153955714Y-96609819D01*
X153955714Y-96609819D02*
X153860476Y-96657438D01*
X153860476Y-96657438D02*
X153812857Y-96705057D01*
X153812857Y-96705057D02*
X153765238Y-96800295D01*
X153765238Y-96800295D02*
X153765238Y-97038390D01*
X153765238Y-97038390D02*
X153812857Y-97133628D01*
X153812857Y-97133628D02*
X153860476Y-97181247D01*
X153860476Y-97181247D02*
X153955714Y-97228866D01*
X153955714Y-97228866D02*
X154146190Y-97228866D01*
X154146190Y-97228866D02*
X154241428Y-97181247D01*
X154241428Y-97181247D02*
X154289047Y-97133628D01*
X154289047Y-97133628D02*
X154336666Y-97038390D01*
X136366666Y-63214819D02*
X136366666Y-63929104D01*
X136366666Y-63929104D02*
X136319047Y-64071961D01*
X136319047Y-64071961D02*
X136223809Y-64167200D01*
X136223809Y-64167200D02*
X136080952Y-64214819D01*
X136080952Y-64214819D02*
X135985714Y-64214819D01*
X137271428Y-63548152D02*
X137271428Y-64214819D01*
X137033333Y-63167200D02*
X136795238Y-63881485D01*
X136795238Y-63881485D02*
X137414285Y-63881485D01*
X176196666Y-96609819D02*
X176196666Y-97324104D01*
X176196666Y-97324104D02*
X176149047Y-97466961D01*
X176149047Y-97466961D02*
X176053809Y-97562200D01*
X176053809Y-97562200D02*
X175910952Y-97609819D01*
X175910952Y-97609819D02*
X175815714Y-97609819D01*
X176815714Y-97038390D02*
X176720476Y-96990771D01*
X176720476Y-96990771D02*
X176672857Y-96943152D01*
X176672857Y-96943152D02*
X176625238Y-96847914D01*
X176625238Y-96847914D02*
X176625238Y-96800295D01*
X176625238Y-96800295D02*
X176672857Y-96705057D01*
X176672857Y-96705057D02*
X176720476Y-96657438D01*
X176720476Y-96657438D02*
X176815714Y-96609819D01*
X176815714Y-96609819D02*
X177006190Y-96609819D01*
X177006190Y-96609819D02*
X177101428Y-96657438D01*
X177101428Y-96657438D02*
X177149047Y-96705057D01*
X177149047Y-96705057D02*
X177196666Y-96800295D01*
X177196666Y-96800295D02*
X177196666Y-96847914D01*
X177196666Y-96847914D02*
X177149047Y-96943152D01*
X177149047Y-96943152D02*
X177101428Y-96990771D01*
X177101428Y-96990771D02*
X177006190Y-97038390D01*
X177006190Y-97038390D02*
X176815714Y-97038390D01*
X176815714Y-97038390D02*
X176720476Y-97086009D01*
X176720476Y-97086009D02*
X176672857Y-97133628D01*
X176672857Y-97133628D02*
X176625238Y-97228866D01*
X176625238Y-97228866D02*
X176625238Y-97419342D01*
X176625238Y-97419342D02*
X176672857Y-97514580D01*
X176672857Y-97514580D02*
X176720476Y-97562200D01*
X176720476Y-97562200D02*
X176815714Y-97609819D01*
X176815714Y-97609819D02*
X177006190Y-97609819D01*
X177006190Y-97609819D02*
X177101428Y-97562200D01*
X177101428Y-97562200D02*
X177149047Y-97514580D01*
X177149047Y-97514580D02*
X177196666Y-97419342D01*
X177196666Y-97419342D02*
X177196666Y-97228866D01*
X177196666Y-97228866D02*
X177149047Y-97133628D01*
X177149047Y-97133628D02*
X177101428Y-97086009D01*
X177101428Y-97086009D02*
X177006190Y-97038390D01*
X190166666Y-96609819D02*
X190166666Y-97324104D01*
X190166666Y-97324104D02*
X190119047Y-97466961D01*
X190119047Y-97466961D02*
X190023809Y-97562200D01*
X190023809Y-97562200D02*
X189880952Y-97609819D01*
X189880952Y-97609819D02*
X189785714Y-97609819D01*
X191119047Y-96609819D02*
X190642857Y-96609819D01*
X190642857Y-96609819D02*
X190595238Y-97086009D01*
X190595238Y-97086009D02*
X190642857Y-97038390D01*
X190642857Y-97038390D02*
X190738095Y-96990771D01*
X190738095Y-96990771D02*
X190976190Y-96990771D01*
X190976190Y-96990771D02*
X191071428Y-97038390D01*
X191071428Y-97038390D02*
X191119047Y-97086009D01*
X191119047Y-97086009D02*
X191166666Y-97181247D01*
X191166666Y-97181247D02*
X191166666Y-97419342D01*
X191166666Y-97419342D02*
X191119047Y-97514580D01*
X191119047Y-97514580D02*
X191071428Y-97562200D01*
X191071428Y-97562200D02*
X190976190Y-97609819D01*
X190976190Y-97609819D02*
X190738095Y-97609819D01*
X190738095Y-97609819D02*
X190642857Y-97562200D01*
X190642857Y-97562200D02*
X190595238Y-97514580D01*
X176371666Y-63214819D02*
X176371666Y-63929104D01*
X176371666Y-63929104D02*
X176324047Y-64071961D01*
X176324047Y-64071961D02*
X176228809Y-64167200D01*
X176228809Y-64167200D02*
X176085952Y-64214819D01*
X176085952Y-64214819D02*
X175990714Y-64214819D01*
X176752619Y-63214819D02*
X177371666Y-63214819D01*
X177371666Y-63214819D02*
X177038333Y-63595771D01*
X177038333Y-63595771D02*
X177181190Y-63595771D01*
X177181190Y-63595771D02*
X177276428Y-63643390D01*
X177276428Y-63643390D02*
X177324047Y-63691009D01*
X177324047Y-63691009D02*
X177371666Y-63786247D01*
X177371666Y-63786247D02*
X177371666Y-64024342D01*
X177371666Y-64024342D02*
X177324047Y-64119580D01*
X177324047Y-64119580D02*
X177276428Y-64167200D01*
X177276428Y-64167200D02*
X177181190Y-64214819D01*
X177181190Y-64214819D02*
X176895476Y-64214819D01*
X176895476Y-64214819D02*
X176800238Y-64167200D01*
X176800238Y-64167200D02*
X176752619Y-64119580D01*
X141434819Y-100643333D02*
X142149104Y-100643333D01*
X142149104Y-100643333D02*
X142291961Y-100690952D01*
X142291961Y-100690952D02*
X142387200Y-100786190D01*
X142387200Y-100786190D02*
X142434819Y-100929047D01*
X142434819Y-100929047D02*
X142434819Y-101024285D01*
X141434819Y-99738571D02*
X141434819Y-99929047D01*
X141434819Y-99929047D02*
X141482438Y-100024285D01*
X141482438Y-100024285D02*
X141530057Y-100071904D01*
X141530057Y-100071904D02*
X141672914Y-100167142D01*
X141672914Y-100167142D02*
X141863390Y-100214761D01*
X141863390Y-100214761D02*
X142244342Y-100214761D01*
X142244342Y-100214761D02*
X142339580Y-100167142D01*
X142339580Y-100167142D02*
X142387200Y-100119523D01*
X142387200Y-100119523D02*
X142434819Y-100024285D01*
X142434819Y-100024285D02*
X142434819Y-99833809D01*
X142434819Y-99833809D02*
X142387200Y-99738571D01*
X142387200Y-99738571D02*
X142339580Y-99690952D01*
X142339580Y-99690952D02*
X142244342Y-99643333D01*
X142244342Y-99643333D02*
X142006247Y-99643333D01*
X142006247Y-99643333D02*
X141911009Y-99690952D01*
X141911009Y-99690952D02*
X141863390Y-99738571D01*
X141863390Y-99738571D02*
X141815771Y-99833809D01*
X141815771Y-99833809D02*
X141815771Y-100024285D01*
X141815771Y-100024285D02*
X141863390Y-100119523D01*
X141863390Y-100119523D02*
X141911009Y-100167142D01*
X141911009Y-100167142D02*
X142006247Y-100214761D01*
X164766666Y-96609819D02*
X164766666Y-97324104D01*
X164766666Y-97324104D02*
X164719047Y-97466961D01*
X164719047Y-97466961D02*
X164623809Y-97562200D01*
X164623809Y-97562200D02*
X164480952Y-97609819D01*
X164480952Y-97609819D02*
X164385714Y-97609819D01*
X165147619Y-96609819D02*
X165814285Y-96609819D01*
X165814285Y-96609819D02*
X165385714Y-97609819D01*
D12*
X185984000Y-80090000D02*
X207384000Y-80090000D01*
X185984000Y-90090000D02*
X185984000Y-80090000D01*
X207384000Y-80090000D02*
X207384000Y-90090000D01*
X207384000Y-90090000D02*
X185984000Y-90090000D01*
X185984000Y-66120000D02*
X207384000Y-66120000D01*
X185984000Y-76120000D02*
X185984000Y-66120000D01*
X207384000Y-66120000D02*
X207384000Y-76120000D01*
X207384000Y-76120000D02*
X185984000Y-76120000D01*
D11*
X148290000Y-105125000D02*
X148290000Y-105865000D01*
X148290000Y-105865000D02*
X148790000Y-105865000D01*
X148530000Y-95704000D02*
X148530000Y-105625000D01*
X148530000Y-95704000D02*
X158810000Y-95704000D01*
X148530000Y-98664000D02*
X158810000Y-98664000D01*
X148530000Y-103565000D02*
X158810000Y-103565000D01*
X148530000Y-105065000D02*
X158810000Y-105065000D01*
X148530000Y-105625000D02*
X158810000Y-105625000D01*
X154983000Y-101988000D02*
X154936000Y-102034000D01*
X155176000Y-102204000D02*
X155141000Y-102239000D01*
X157280000Y-99690000D02*
X157245000Y-99726000D01*
X157485000Y-99896000D02*
X157438000Y-99942000D01*
X158810000Y-95704000D02*
X158810000Y-105625000D01*
X149595001Y-100281001D02*
G75*
G03*
X149594574Y-101648042I1534992J-684000D01*
G01*
X151813999Y-99430001D02*
G75*
G03*
X150446958Y-99429574I-684000J-1534992D01*
G01*
X150446000Y-102499999D02*
G75*
G03*
X151158805Y-102645252I683999J1535000D01*
G01*
X151130000Y-102644999D02*
G75*
G03*
X151813318Y-102499755I0J1679999D01*
G01*
X152665000Y-101649000D02*
G75*
G03*
X152665426Y-100281958I-1535000J684000D01*
G01*
X157890000Y-100965000D02*
G75*
G03*
X157890000Y-100965000I-1680000J0D01*
G01*
X152185000Y-62820000D02*
X121215000Y-62820000D01*
X152185000Y-50480000D02*
X152185000Y-62820000D01*
X142490000Y-63714338D02*
X141990000Y-63714338D01*
X142240000Y-63281325D02*
X142490000Y-63714338D01*
X141990000Y-63714338D02*
X142240000Y-63281325D01*
X121215000Y-62820000D02*
X121215000Y-50480000D01*
X171150000Y-105125000D02*
X171150000Y-105865000D01*
X171150000Y-105865000D02*
X171650000Y-105865000D01*
X171390000Y-95704000D02*
X171390000Y-105625000D01*
X171390000Y-95704000D02*
X181670000Y-95704000D01*
X171390000Y-98664000D02*
X181670000Y-98664000D01*
X171390000Y-103565000D02*
X181670000Y-103565000D01*
X171390000Y-105065000D02*
X181670000Y-105065000D01*
X171390000Y-105625000D02*
X181670000Y-105625000D01*
X177843000Y-101988000D02*
X177796000Y-102034000D01*
X178036000Y-102204000D02*
X178001000Y-102239000D01*
X180140000Y-99690000D02*
X180105000Y-99726000D01*
X180345000Y-99896000D02*
X180298000Y-99942000D01*
X181670000Y-95704000D02*
X181670000Y-105625000D01*
X172455001Y-100281001D02*
G75*
G03*
X172454574Y-101648042I1534992J-684000D01*
G01*
X174673999Y-99430001D02*
G75*
G03*
X173306958Y-99429574I-684000J-1534992D01*
G01*
X173306000Y-102499999D02*
G75*
G03*
X174018805Y-102645252I683999J1535000D01*
G01*
X173990000Y-102644999D02*
G75*
G03*
X174673318Y-102499755I0J1679999D01*
G01*
X175525000Y-101649000D02*
G75*
G03*
X175525426Y-100281958I-1535000J684000D01*
G01*
X180750000Y-100965000D02*
G75*
G03*
X180750000Y-100965000I-1680000J0D01*
G01*
X182580000Y-105125000D02*
X182580000Y-105865000D01*
X182580000Y-105865000D02*
X183080000Y-105865000D01*
X182820000Y-95704000D02*
X182820000Y-105625000D01*
X182820000Y-95704000D02*
X198180000Y-95704000D01*
X182820000Y-98664000D02*
X198180000Y-98664000D01*
X182820000Y-103565000D02*
X198180000Y-103565000D01*
X182820000Y-105065000D02*
X198180000Y-105065000D01*
X182820000Y-105625000D02*
X198180000Y-105625000D01*
X189273000Y-101988000D02*
X189226000Y-102034000D01*
X189466000Y-102204000D02*
X189431000Y-102239000D01*
X191570000Y-99690000D02*
X191535000Y-99726000D01*
X191775000Y-99896000D02*
X191728000Y-99942000D01*
X194353000Y-101988000D02*
X194306000Y-102034000D01*
X194546000Y-102204000D02*
X194511000Y-102239000D01*
X196650000Y-99690000D02*
X196615000Y-99726000D01*
X196855000Y-99896000D02*
X196808000Y-99942000D01*
X198180000Y-95704000D02*
X198180000Y-105625000D01*
X183885001Y-100281001D02*
G75*
G03*
X183884574Y-101648042I1534992J-684000D01*
G01*
X186103999Y-99430001D02*
G75*
G03*
X184736958Y-99429574I-684000J-1534992D01*
G01*
X184736000Y-102499999D02*
G75*
G03*
X185448805Y-102645252I683999J1535000D01*
G01*
X185420000Y-102644999D02*
G75*
G03*
X186103318Y-102499755I0J1679999D01*
G01*
X186955000Y-101649000D02*
G75*
G03*
X186955426Y-100281958I-1535000J684000D01*
G01*
X192180000Y-100965000D02*
G75*
G03*
X192180000Y-100965000I-1680000J0D01*
G01*
X197260000Y-100965000D02*
G75*
G03*
X197260000Y-100965000I-1680000J0D01*
G01*
X192190000Y-62820000D02*
X161220000Y-62820000D01*
X192190000Y-50480000D02*
X192190000Y-62820000D01*
X182495000Y-63714338D02*
X181995000Y-63714338D01*
X182245000Y-63281325D02*
X182495000Y-63714338D01*
X181995000Y-63714338D02*
X182245000Y-63281325D01*
X161220000Y-62820000D02*
X161220000Y-50480000D01*
X144890000Y-104470000D02*
X147390000Y-104470000D01*
X147390000Y-104470000D02*
X147390000Y-101970000D01*
X143070000Y-104170000D02*
X147090000Y-104170000D01*
X144780000Y-104170000D02*
X144780000Y-103670000D01*
X145590000Y-104170000D02*
X145590000Y-103170000D01*
X147090000Y-104170000D02*
X147090000Y-96450000D01*
X143570000Y-103670000D02*
X143570000Y-96950000D01*
X144780000Y-103670000D02*
X143570000Y-103670000D01*
X145590000Y-103170000D02*
X147090000Y-103170000D01*
X145590000Y-97450000D02*
X147090000Y-97450000D01*
X143570000Y-96950000D02*
X144780000Y-96950000D01*
X144780000Y-96950000D02*
X144780000Y-96450000D01*
X143070000Y-96450000D02*
X143070000Y-104170000D01*
X145590000Y-96450000D02*
X145590000Y-97450000D01*
X147090000Y-96450000D02*
X143070000Y-96450000D01*
X159720000Y-105125000D02*
X159720000Y-105865000D01*
X159720000Y-105865000D02*
X160220000Y-105865000D01*
X159960000Y-95704000D02*
X159960000Y-105625000D01*
X159960000Y-95704000D02*
X170240000Y-95704000D01*
X159960000Y-98664000D02*
X170240000Y-98664000D01*
X159960000Y-103565000D02*
X170240000Y-103565000D01*
X159960000Y-105065000D02*
X170240000Y-105065000D01*
X159960000Y-105625000D02*
X170240000Y-105625000D01*
X166413000Y-101988000D02*
X166366000Y-102034000D01*
X166606000Y-102204000D02*
X166571000Y-102239000D01*
X168710000Y-99690000D02*
X168675000Y-99726000D01*
X168915000Y-99896000D02*
X168868000Y-99942000D01*
X170240000Y-95704000D02*
X170240000Y-105625000D01*
X161025001Y-100281001D02*
G75*
G03*
X161024574Y-101648042I1534992J-684000D01*
G01*
X163243999Y-99430001D02*
G75*
G03*
X161876958Y-99429574I-684000J-1534992D01*
G01*
X161876000Y-102499999D02*
G75*
G03*
X162588805Y-102645252I683999J1535000D01*
G01*
X162560000Y-102644999D02*
G75*
G03*
X163243318Y-102499755I0J1679999D01*
G01*
X164095000Y-101649000D02*
G75*
G03*
X164095426Y-100281958I-1535000J684000D01*
G01*
X169320000Y-100965000D02*
G75*
G03*
X169320000Y-100965000I-1680000J0D01*
G01*
%LPC*%
D13*
X189484000Y-85090000D03*
X204984000Y-85090000D03*
D14*
X203835000Y-62230000D03*
X203835000Y-93980000D03*
X139065000Y-102235000D03*
X139065000Y-67310000D03*
D13*
X189484000Y-71120000D03*
X204984000Y-71120000D03*
D15*
X151130000Y-100965000D03*
D16*
X156210000Y-100965000D03*
D13*
X149200000Y-59540000D03*
X124200000Y-59540000D03*
D17*
X142240000Y-60960000D03*
D18*
X139470000Y-60960000D03*
X136700000Y-60960000D03*
X133930000Y-60960000D03*
X131160000Y-60960000D03*
X140855000Y-58120000D03*
X138085000Y-58120000D03*
X135315000Y-58120000D03*
X132545000Y-58120000D03*
D15*
X173990000Y-100965000D03*
D16*
X179070000Y-100965000D03*
D15*
X185420000Y-100965000D03*
D16*
X190500000Y-100965000D03*
X195580000Y-100965000D03*
D13*
X189205000Y-59540000D03*
X164205000Y-59540000D03*
D17*
X182245000Y-60960000D03*
D18*
X179475000Y-60960000D03*
X176705000Y-60960000D03*
X173935000Y-60960000D03*
X171165000Y-60960000D03*
X180860000Y-58120000D03*
X178090000Y-58120000D03*
X175320000Y-58120000D03*
X172550000Y-58120000D03*
D19*
X144780000Y-101560000D03*
D20*
X144780000Y-99060000D03*
D15*
X162560000Y-100965000D03*
D16*
X167640000Y-100965000D03*
%LPD*%
M02*
